<?xml version="1.0" encoding="utf-8"?>
<!-- Generator: Adobe Illustrator 24.1.0, SVG Export Plug-In . SVG Version: 6.00 Build 0)  -->
<svg version="1.1" id="svg6" xmlns="http://www.w3.org/2000/svg" xmlns:xlink="http://www.w3.org/1999/xlink" x="0px" y="0px"
	 viewBox="496 -368 1024 768" enable-background="new 496 -368 1024 768" xml:space="preserve">
<rect id="bg" x="-7122.6" y="-7472" fill="#2BACB5" stroke="#000000" stroke-miterlimit="10" width="15687.9" height="14889"/>
<g id="skills">
	<g id="skillnames">
		<g id="title">
			
				<text id="texttitle" transform="matrix(1 0 0 1 677.7734 -243.826)" fill="#F5ECD9" font-family="'Roboto-Light'" font-size="24.0762px">Front end</text>
		</g>
		<g id="title_1_">
			
				<text id="texttitle_1_" transform="matrix(1 0 0 1 846.2227 16.0004)" fill="#F5ECD9" font-family="'Roboto-Light'" font-size="24.0762px">DevOps</text>
		</g>
		<g id="title_2_">
			
				<text id="texttitle_2_" transform="matrix(1 0 0 1 514.2649 16.0002)" fill="#F5ECD9" font-family="'Roboto-Light'" font-size="24.0762px">Back end</text>
		</g>
	</g>
	<polyline id="graph1" fill="none" stroke="#FFFFFF" stroke-width="2" stroke-miterlimit="10" points="729.6,-230.5 729.6,-87 
		833.3,9.6 	"/>
	
		<line id="graph2" fill="none" stroke="#FFFFFF" stroke-width="2" stroke-miterlimit="10" x1="729.6" y1="-87" x2="625.9" y2="9.6"/>
	<polygon id="skillpath" fill="none" stroke="#FFFFFF" stroke-miterlimit="10" points="729.6,-147.8 748.5,-69.4 709.5,-69.4 	"/>
	<g id="invincible">
		<defs>
			<polygon id="clippingimage" points="729.6,-232.3 833.3,9.6 625.9,9.6 			"/>
		</defs>
		<clipPath id="clippingimage_1_">
			<use xlink:href="#clippingimage"  overflow="visible"/>
		</clipPath>
		<rect x="586.5" y="-244.5" clip-path="url(#clippingimage_1_)" fill="#E3E815" width="323" height="294"/>
		<g clip-path="url(#clippingimage_1_)">
			<g>
				<g>
					<rect x="723.8" y="-41.8" fill="#4D4C4C" width="4.8" height="39.8"/>
					<path fill="#E8B33F" d="M748.2-18.2c0,1.6-1.3,2.9-2.9,2.9h-38.6c-1.6,0-2.9-1.3-2.9-2.9l0,0c0-1.6,1.3-2.9,2.9-2.9h38.6
						C746.9-21.1,748.2-19.8,748.2-18.2L748.2-18.2z"/>
					<rect x="709" y="-18.4" fill="#4D4C4C" width="34.4" height="4.3"/>
					<path fill="#4D4C4C" d="M741.4-0.6c0,0.8-0.7,1.5-1.5,1.5h-27.4c-0.8,0-1.5-0.7-1.5-1.5l0,0c0-0.8,0.7-1.5,1.5-1.5h27.4
						C740.7-2.1,741.4-1.5,741.4-0.6L741.4-0.6z"/>
					<path fill="#4D4C4C" d="M715.6,3.1c0,1.3-1,2.3-2.3,2.3c-1.3,0-2.3-1-2.3-2.3c0-1.3,1-2.3,2.3-2.3
						C714.6,0.9,715.6,1.9,715.6,3.1z"/>
					<path fill="#4D4C4C" d="M741.4,3.1c0,1.3-1,2.3-2.3,2.3c-1.3,0-2.3-1-2.3-2.3c0-1.3,1-2.3,2.3-2.3
						C740.4,0.9,741.4,1.9,741.4,3.1z"/>
					<path fill="#4D4C4C" d="M728.4,3.1c0,1.3-1,2.3-2.3,2.3c-1.3,0-2.3-1-2.3-2.3c0-1.3,1-2.3,2.3-2.3
						C727.4,0.9,728.4,1.9,728.4,3.1z"/>
					<path fill="#E8B33F" d="M748.4-36.6c0,2-1.7,3.7-3.7,3.7h-36.3c-2,0-3.7-1.7-3.7-3.7v-13.7c0-2,1.7-3.7,3.7-3.7h36.3
						c2,0,3.7,1.7,3.7,3.7V-36.6z"/>
				</g>
				<g>
					<path opacity="0.1" d="M808.2,5.7c0,2-36.1,3.6-80.5,3.6c-44.5,0-80.5-1.6-80.5-3.6c0-2,36.1-3.6,80.5-3.6
						C772.1,2.1,808.2,3.7,808.2,5.7z"/>
				</g>
				<g>
					<rect x="657.9" y="-72.6" fill="#F4F4F4" width="7" height="26"/>
					<path fill="#BFBEBE" d="M663.2-50.1c0,1-0.8,1.8-1.8,1.8c-1,0-1.8-0.8-1.8-1.8c0-1,0.8-1.8,1.8-1.8
						C662.4-51.9,663.2-51.1,663.2-50.1z"/>
				</g>
				<g>
					<rect x="665.8" y="-72.6" fill="#F4F4F4" width="7" height="26"/>
					<path fill="#BFBEBE" d="M671-50.1c0,1-0.8,1.8-1.8,1.8c-1,0-1.8-0.8-1.8-1.8c0-1,0.8-1.8,1.8-1.8C670.2-51.9,671-51.1,671-50.1
						z"/>
				</g>
				<g>

						<rect x="676.1" y="-73.1" transform="matrix(0.9755 -0.2198 0.2198 0.9755 29.8222 147.899)" fill="#F4F4F4" width="7" height="26"/>
					<path fill="#BFBEBE" d="M683.4-51.2c0.2,1-0.4,1.9-1.3,2.1c-1,0.2-1.9-0.4-2.1-1.3c-0.2-1,0.4-1.9,1.3-2.1
						C682.2-52.7,683.2-52.1,683.4-51.2z"/>
				</g>
				<polygon fill="#544B43" points="808.2,-46.5 648.1,-46.5 648.1,-42.9 654.5,-42.9 654.5,5.4 661.4,5.4 661.4,-42.9 794.8,-42.9
					794.8,5.4 801.8,5.4 801.8,-42.9 808.2,-42.9 				"/>
			</g>
			<g>
				<path fill="#ADADAD" d="M801.2-47c0,0.3-0.3,0.6-0.6,0.6H759c-0.3,0-0.6-0.3-0.6-0.6v-2c0-0.3,0.3-0.6,0.6-0.6h41.6
					c0.3,0,0.6,0.3,0.6,0.6V-47z"/>
				<g>
					<path fill="#E8E7E7" d="M798.9-73.3h-19.1v23.8h19.1c1.3,0,2.3-1,2.3-2.3V-71C801.2-72.3,800.2-73.3,798.9-73.3z"/>
					<path fill="#CCCBCB" d="M760.8-73.3c-1.3,0-2.3,1-2.3,2.3v19.2c0,1.3,1,2.3,2.3,2.3h19v-23.8H760.8z"/>
				</g>
				<path fill="#FFFFFF" d="M782.5-61.4c0,1.5-1.2,2.6-2.6,2.6c-1.5,0-2.6-1.2-2.6-2.6c0-1.5,1.2-2.6,2.6-2.6
					C781.3-64.1,782.5-62.9,782.5-61.4z"/>
			</g>
			<g id="me" transform="translate(678.919, -150.631)">
<path style=" stroke:none;fill-rule:evenodd;fill:rgb(1.568627%,1.568627%,1.568627%);fill-opacity:1;" d="M 49.433594 4.898438 C 49.335938 5.066406 49.203125 5.199219 49.140625 5.199219 C 48.679688 5.199219 47.289062 6.097656 46.4375 6.945312 C 44.496094 8.875 43.957031 10.46875 43.941406 14.351562 C 43.929688 16.21875 43.90625 16.519531 43.714844 17.066406 C 43.265625 18.375 44.078125 20.21875 45.898438 22 C 47.25 23.328125 47.34375 23.574219 47.316406 25.839844 C 47.292969 27.777344 47.222656 28.222656 46.847656 28.789062 C 45.707031 30.515625 43.359375 31.386719 39.300781 31.59375 C 36.660156 31.726562 35.359375 32.496094 33.933594 34.773438 C 32.789062 36.601562 32.398438 40.324219 32.984375 43.867188 C 33.296875 45.773438 33.28125 47.6875 32.945312 49.375 C 32.65625 50.816406 32.617188 51.300781 32.515625 54.605469 C 32.410156 58.058594 32.582031 57.878906 26.324219 61.066406 C 23.046875 62.738281 23.171875 62.691406 20.921875 63.203125 C 19.972656 63.417969 19.074219 63.660156 18.921875 63.738281 C 17.652344 64.390625 15.738281 64.125 12.472656 62.832031 C 10.902344 62.214844 9.839844 61.898438 9.324219 61.898438 C 9.140625 61.898438 8.886719 61.847656 8.769531 61.785156 C 8.414062 61.59375 6.785156 61.203125 6.332031 61.203125 C 5.875 61.199219 5.558594 61.476562 5.429688 61.992188 C 5.394531 62.132812 5.207031 62.542969 5.007812 62.898438 C 4.53125 63.765625 4.503906 65.246094 4.941406 66.800781 C 5.085938 67.324219 5.3125 68.167969 5.445312 68.683594 C 5.914062 70.492188 6.433594 70.730469 9.949219 70.742188 C 12.375 70.753906 13.855469 70.421875 15.5625 69.496094 L 16.273438 69.109375 L 16.34375 70.28125 C 16.441406 71.835938 16.550781 72.375 16.855469 72.742188 C 16.992188 72.910156 17.390625 73.476562 17.742188 74 C 18.449219 75.0625 18.726562 75.351562 19.449219 75.773438 C 19.929688 76.050781 20.160156 76.410156 20.433594 77.308594 C 20.488281 77.488281 23.851562 80.207031 25.570312 81.460938 C 27.851562 83.128906 28.980469 83.660156 31.148438 84.085938 C 31.976562 84.25 33.078125 84.539062 33.601562 84.726562 C 34.121094 84.917969 35 85.148438 35.550781 85.242188 C 36.496094 85.402344 37.316406 85.703125 37.738281 86.039062 C 38.035156 86.277344 37.78125 86.832031 37.410156 86.761719 C 37.265625 86.734375 36.878906 86.683594 36.550781 86.652344 C 36.21875 86.617188 35.304688 86.5 34.511719 86.386719 C 31.402344 85.941406 30.636719 86.234375 28.617188 88.652344 C 27.339844 90.183594 27.25 90.429688 27.25 92.351562 C 27.25 95.503906 27.976562 95.96875 30.792969 94.601562 C 32.128906 93.957031 32.398438 93.859375 33.078125 93.796875 C 33.503906 93.757812 33.984375 93.667969 34.148438 93.601562 C 34.339844 93.519531 34.847656 93.484375 35.550781 93.5 C 37.886719 93.550781 39.03125 93.5 41.320312 93.257812 L 43.6875 93.003906 L 45.320312 92.363281 C 47.25 91.601562 47.800781 91.425781 49.628906 91 C 50.574219 90.78125 51.089844 90.609375 51.277344 90.453125 C 51.816406 90.003906 52.484375 90.019531 53.035156 90.496094 C 53.210938 90.648438 53.507812 90.800781 53.699219 90.835938 C 53.890625 90.871094 54.273438 91.007812 54.550781 91.136719 C 55.351562 91.511719 55.601562 91.585938 56.449219 91.691406 C 57.738281 91.855469 60.855469 92.09375 63.613281 92.242188 L 66.171875 92.382812 L 66.894531 92.753906 C 68.078125 93.367188 69.597656 93.160156 69.804688 92.359375 C 69.863281 92.132812 69.933594 91.871094 69.964844 91.773438 C 70.0625 91.429688 69.789062 90.5 69.457031 90.066406 C 69.277344 89.832031 68.957031 89.304688 68.742188 88.894531 C 68.515625 88.46875 68.019531 87.785156 67.582031 87.300781 C 66.621094 86.238281 66.632812 86.210938 68.351562 85.855469 C 70.667969 85.378906 71.066406 85.195312 73.765625 83.363281 C 74.855469 82.625 75.878906 81.832031 76.566406 81.191406 C 77.164062 80.632812 77.898438 80.019531 78.199219 79.824219 C 79.421875 79.03125 81.390625 77.242188 81.964844 76.398438 C 82.84375 75.113281 82.996094 74.46875 83.085938 71.648438 C 83.171875 68.953125 83.066406 69.113281 84.320312 69.753906 C 86.308594 70.773438 87.359375 70.851562 88.425781 70.066406 C 88.652344 69.894531 88.828125
69.867188 89.445312 69.882812 C 90.34375 69.914062 90.832031 69.738281 91.078125 69.292969 C 91.421875 68.664062 91.648438 68.46875 92.441406 68.101562 C 93.085938 67.804688 93.328125 67.632812 93.628906 67.242188 C 94.082031 66.652344 95.199219 65.5 95.316406 65.5 C 95.363281 65.5 95.398438 65.179688 95.398438 64.785156 L 95.398438 64.074219 L 94.773438 64.121094 C 93.933594 64.191406 93.175781 64.5625 92.46875 65.253906 C 91.652344 66.050781 91.640625 66.035156 91.207031 63.414062 C 90.558594 59.492188 89.6875 58.753906 87.757812 60.5 C 86.617188 61.535156 86.007812 61.878906 84.832031 62.152344 C 84.011719 62.339844 83.679688 62.515625 83.082031 63.078125 L 82.59375 63.535156 L 81.621094 63.363281 C 81.085938 63.269531 80.539062 63.113281 80.398438 63.015625 C 80.261719 62.917969 79.773438 62.6875 79.316406 62.503906 C 78.507812 62.179688 77.667969 61.65625 74.636719 59.574219 C 73.054688 58.488281 73.035156 58.464844 72.617188 57.285156 C 71.445312 53.960938 71.148438 49.628906 71.808594 45.398438 C 72.132812 43.3125 72.140625 43.15625 72.144531 40.148438 C 72.152344 35.523438 72 35.082031 69.628906 32.847656 L 68.605469 31.886719 L 66.878906 31.4375 C 65.925781 31.191406 64.363281 30.71875 63.398438 30.386719 C 62.4375 30.054688 61.3125 29.691406 60.898438 29.585938 C 57.554688 28.710938 57.28125 28.246094 57.480469 23.730469 C 57.589844 21.308594 57.523438 21.511719 58.515625 20.664062 C 59.96875 19.421875 60.511719 17.199219 59.746094 15.628906 C 59.488281 15.105469 59.480469 15.058594 59.601562 14.488281 C 60.0625 12.324219 58.800781 8.78125 56.984375 7.136719 C 56.117188 6.347656 54.804688 5.476562 54.257812 5.324219 C 53.773438 5.1875 53.648438 5.105469 53.5625 4.878906 L 53.457031 4.601562 L 49.609375 4.601562 L 49.433594 4.898438 M 40.878906 52.925781 C 40.9375 52.992188 41.140625 53.679688 41.335938 54.449219 C 41.53125 55.21875 41.84375 56.234375 42.035156 56.699219 C 43.589844 60.550781 42.292969 66.191406 39.066406 69.570312 C 37.65625 71.050781 36.945312 70.875 32.523438 67.957031 C 31 66.949219 31.144531 67.101562 31.058594 66.394531 L 30.992188 65.839844 L 32.246094 65.882812 C 33.644531 65.929688 33.839844 65.824219 33.144531 65.398438 C 32.644531 65.085938 32.753906 65.050781 34.183594 65.042969 L 35.449219 65.039062 L 36.449219 64.601562 C 39.207031 63.390625 40.496094 60.175781 40.5 54.460938 C 40.503906 53.042969 40.609375 52.601562 40.878906 52.925781 M 64.578125 60.628906 C 66.101562 63.734375 67.816406 65.144531 71.574219 66.390625 C 72.386719 66.660156 73.140625 66.898438 73.246094 66.917969 C 73.402344 66.945312 73.199219 67.164062 72.347656 67.886719 C 70.589844 69.382812 70.042969 69.714844 68.464844 70.238281 C 67.082031 70.699219 66.800781 70.675781 66.800781 70.09375 C 66.800781 69.566406 66.34375 68.550781 65.683594 67.597656 C 64.0625 65.269531 63.234375 61.867188 63.796875 59.855469 C 63.957031 59.28125 63.875 59.199219 64.578125 60.628906 M 9.089844 64.492188 C 9.855469 64.886719 10.191406 65.414062 9.925781 65.8125 C 9.222656 66.863281 8.691406 66.757812 8.015625 65.429688 C 7.734375 64.875 7.738281 64.851562 8.171875 64.554688 C 8.621094 64.25 8.609375 64.25 9.089844 64.492188 "/>
</g>
<!--			<g id="me" transform="matrix(0.239694, 0, 0, 0.239694, 678.918579, -150.631439)" style="">-->
<!--  <path id="path0" d="M197.736 19.600 C 197.346 20.260,196.817 20.800,196.560 20.800 C 194.720 20.800,189.157 24.391,185.754 27.775 C 177.987 35.498,175.834 41.880,175.760 57.400 C 175.724 64.878,175.626 66.071,174.865 68.272 C 173.057 73.500,176.316 80.869,183.587 88.000 C 189.004 93.312,189.368 94.299,189.259 103.354 C 189.166 111.107,188.883 112.889,187.384 115.156 C 182.821 122.059,173.432 125.546,157.200 126.368 C 146.641 126.903,141.430 129.992,135.735 139.095 C 131.156 146.414,129.600 161.297,131.932 175.473 C 133.185 183.087,133.132 190.756,131.780 197.507 C 130.627 203.262,130.468 205.204,130.061 218.419 C 129.636 232.235,130.331 231.509,105.303 244.272 C 92.192 250.959,92.693 250.760,83.693 252.812 C 79.895 253.678,76.295 254.639,75.693 254.949 C 70.607 257.565,62.959 256.494,49.884 251.335 C 43.612 248.860,39.366 247.600,37.301 247.600 C 36.556 247.600,35.554 247.390,35.074 247.133 C 33.652 246.371,27.135 244.817,25.329 244.808 C 23.505 244.799,22.236 245.912,21.726 247.965 C 21.584 248.534,20.823 250.170,20.034 251.600 C 18.122 255.066,18.018 260.980,19.759 267.200 C 20.343 269.290,21.255 272.678,21.783 274.728 C 23.651 281.969,25.740 282.925,39.800 282.975 C 49.502 283.010,55.427 281.692,62.247 277.985 L 65.094 276.438 65.379 281.119 C 65.758 287.340,66.204 289.496,67.418 290.970 C 67.974 291.647,69.569 293.910,70.962 296.000 C 73.797 300.254,74.910 301.409,77.790 303.086 C 79.712 304.205,80.635 305.643,81.728 309.227 C 81.947 309.947,95.404 320.831,102.278 325.849 C 111.408 332.513,115.917 334.634,124.600 336.351 C 127.900 337.004,132.310 338.157,134.400 338.914 C 136.490 339.671,140.000 340.595,142.200 340.967 C 145.986 341.607,149.273 342.806,150.955 344.161 C 152.134 345.110,151.128 347.321,149.643 347.044 C 149.070 346.937,147.520 346.740,146.200 346.606 C 144.880 346.472,141.215 345.994,138.054 345.542 C 125.607 343.764,122.542 344.943,114.475 354.607 C 109.367 360.727,109.000 361.720,109.000 369.400 C 109.000 382.023,111.910 383.872,123.177 378.411 C 128.510 375.826,129.592 375.445,132.313 375.189 C 134.011 375.029,135.940 374.674,136.600 374.400 C 137.367 374.081,139.387 373.935,142.200 373.996 C 151.552 374.196,156.128 374.005,165.276 373.031 L 174.752 372.022 181.276 369.446 C 188.993 366.399,191.198 365.703,198.511 364.007 C 202.296 363.130,204.363 362.445,205.111 361.820 C 207.269 360.016,209.941 360.081,212.147 361.992 C 212.836 362.589,214.030 363.198,214.800 363.345 C 215.570 363.492,217.100 364.035,218.200 364.551 C 221.404 366.053,222.412 366.348,225.800 366.773 C 230.956 367.420,243.418 368.376,254.447 368.971 L 264.694 369.524 267.579 371.017 C 272.320 373.470,278.398 372.645,279.226 369.435 C 279.458 368.536,279.739 367.484,279.852 367.097 C 280.253 365.715,279.156 362.003,277.834 360.272 C 277.116 359.331,275.824 357.220,274.964 355.581 C 274.070 353.878,272.080 351.143,270.321 349.200 C 266.479 344.957,266.539 344.843,273.402 343.429 C 282.666 341.520,284.260 340.786,295.066 333.459 C 299.420 330.507,303.518 327.324,306.266 324.759 C 308.650 322.535,311.590 320.074,312.800 319.290 C 317.686 316.127,325.561 308.969,327.861 305.600 C 331.372 300.460,331.981 297.875,332.344 286.600 C 332.690 275.809,332.271 276.452,337.288 279.023 C 345.239 283.097,349.438 283.414,353.704 280.260 C 354.617 279.585,355.319 279.461,357.776 279.539 C 361.381 279.654,363.335 278.947,364.309 277.177 C 365.693 274.662,366.597 273.873,369.768 272.413 C 372.350 271.225,373.305 270.531,374.515 268.963 C 376.332 266.608,380.801 262.000,381.268 262.000 C 381.451 262.000,381.600 260.715,381.600 259.145 L 381.600 256.290 379.087 256.492 C 375.740 256.761,372.704 258.250,369.875 261.013 C 366.608 264.203,366.564 264.140,364.832 253.663 C 362.236 237.965,358.743 235.012,351.034 241.998 C 346.471 246.133,344.025 247.513,339.321 248.604 C 336.047 249.363,334.726 250.063,332.321 252.312 L 330.368 254.139 326.484 253.459 C 324.348 253.085,322.150 252.457,321.600 252.065 C 321.050 251.672,319.097 250.749,317.260 250.014 C 314.037 248.725,310.673 246.618,298.554 238.300 C 292.224 233.955,292.136 233.856,290.471 229.136 C 285.779 215.845,284.597 198.515,287.227 181.600 C 288.524 173.255,288.564 172.632,288.582 160.600 C 288.609 142.101,287.999 140.331,278.508 131.397 L 274.416 127.544 267.508 125.756 C 263.709 124.773,257.450 122.878,253.600 121.545 C 249.750 120.212,245.250 118.769,243.600 118.337 C 230.218 114.839,229.132 112.979,229.929 94.927 C 230.357 85.240,230.087 86.042,234.059 82.655 C 239.878 77.693,242.050 68.798,238.977 62.517 C 237.951 60.420,237.927 60.229,238.410 57.953 C 240.246 49.303,235.198 35.121,227.944 28.545 C 224.462 25.389,219.217 21.902,217.034 21.293 C 215.097 20.752,214.590 20.429,214.246 19.516 L 213.825 18.400 206.135 18.400 L 198.445 18.400 197.736 19.600 M163.515 211.700 C 163.743 211.975,164.566 214.720,165.346 217.800 C 166.125 220.880,167.381 224.930,168.137 226.800 C 174.367 242.204,169.167 264.765,156.271 278.286 C 150.623 284.208,147.787 283.507,130.101 271.828 C 123.993 267.794,124.574 268.411,124.231 265.581 L 123.963 263.362 128.981 263.529 C 134.584 263.716,135.352 263.301,132.579 261.587 C 130.578 260.350,131.011 260.203,136.733 260.175 L 141.800 260.150 145.800 258.399 C 156.835 253.568,161.977 240.700,162.004 217.842 C 162.011 212.169,162.445 210.406,163.515 211.700 M258.312 242.516 C 264.412 254.932,271.267 260.578,286.301 265.568 C 289.545 266.645,292.556 267.589,292.990 267.666 C 293.602 267.775,292.792 268.649,289.390 271.546 C 282.361 277.534,280.176 278.858,273.854 280.960 C 268.321 282.800,267.200 282.701,267.200 280.369 C 267.200 278.266,265.379 274.201,262.731 270.390 C 256.255 261.072,252.943 247.462,255.195 239.419 C 255.835 237.131,255.504 236.802,258.312 242.516 M36.354 257.976 C 39.424 259.543,40.761 261.650,39.697 263.247 C 36.896 267.453,34.762 267.025,32.058 261.716 C 30.930 259.503,30.949 259.399,32.693 258.214 C 34.483 256.998,34.441 257.001,36.354 257.976 " stroke="none" fill="#040404" fill-rule="evenodd"/>-->
<!--				<path id="path1" d="" stroke="none" fill="#080404" fill-rule="evenodd"/>-->
<!--				<path id="path2" d="" stroke="none" fill="#080404" fill-rule="evenodd"/>-->
<!--				<path id="path3" d="" stroke="none" fill="#080404" fill-rule="evenodd"/>-->
<!--				<path id="path4" d="" stroke="none" fill="#080404" fill-rule="evenodd"/>-->
<!--				<path id="path5" d="" stroke="none" fill="#080404" fill-rule="evenodd"/>-->
<!--				<path id="path6" d="" stroke="none" fill="#080404" fill-rule="evenodd"/>-->
<!--				<path id="path7" d="" stroke="none" fill="#080404" fill-rule="evenodd"/>-->
<!--</g>-->

		</g>
	</g>
</g>
<g id="sc6title">
	<text transform="matrix(1 0 0 1 527.9698 -314.6172)" fill="#F5ECD9" font-family="'Roboto-Thin'" font-size="49.2156px">As for the future:</text>
</g>
<rect id="bgright" x="1031.3" y="-1872.5" fill="#F5ECD9" width="2340.6" height="3810.5"/>
<g id="endtitles">
	<g id="githubsite">
		<path fill="#2BACB5" d="M1093.4,202.4c-0.1,0.1-0.3,0.1-0.4-0.1c-0.2-0.2-0.3-0.3-0.1-0.4c0.1-0.1,0.3-0.1,0.4,0.1
			C1093.5,202.2,1093.5,202.4,1093.4,202.4z M1092.5,201.2c0.2,0.2,0.2,0.3,0,0.4c-0.1,0.1-0.3,0-0.3-0.2c-0.1-0.2-0.1-0.3,0-0.4
			C1092.3,200.9,1092.4,200.9,1092.5,201.2z M1091.2,199.9c-0.1,0.1-0.2,0.1-0.3,0c-0.2-0.1-0.2-0.2-0.2-0.3c0-0.1,0.2-0.1,0.3,0
			C1091.2,199.7,1091.3,199.8,1091.2,199.9z M1091.9,200.6c-0.1,0.1-0.2,0.1-0.3-0.1c-0.1-0.2-0.2-0.3,0-0.3
			c0.1-0.1,0.2-0.1,0.3,0.1C1092,200.4,1092,200.5,1091.9,200.6z M1094.6,202.9c-0.1,0.2-0.2,0.3-0.4,0.2c-0.3-0.1-0.3-0.2-0.3-0.3
			c0.1-0.2,0.2-0.2,0.4-0.2C1094.6,202.7,1094.6,202.8,1094.6,202.9z M1096,203.1c0,0.2-0.1,0.3-0.3,0.3c-0.3,0-0.3-0.1-0.3-0.3
			c0-0.2,0.1-0.3,0.3-0.3C1095.8,202.9,1096,202.9,1096,203.1z M1097.1,202.9c0,0.2-0.1,0.3-0.3,0.3s-0.3,0-0.4-0.2
			c0-0.2,0.1-0.3,0.3-0.3C1097,202.6,1097.1,202.7,1097.1,202.9z M1117.6,182.7v20.2c0,1.7-0.6,3.1-1.8,4.3
			c-1.2,1.2-2.6,1.8-4.3,1.8h-4.8c-0.3,0-0.4,0-0.5,0s-0.3-0.1-0.4-0.1c-0.2-0.1-0.3-0.2-0.3-0.3c-0.1-0.2-0.1-0.3-0.1-0.6v-5
			c0-1.3-0.3-2.3-1.1-3c0.8-0.1,1.5-0.3,2.2-0.3c0.7-0.2,1.3-0.4,2-0.8c0.7-0.4,1.3-0.8,1.7-1.4c0.4-0.6,0.8-1.3,1.1-2.3
			s0.4-2,0.4-3.2c0-1.7-0.6-3.2-1.7-4.3c0.5-1.3,0.5-2.8-0.2-4.3c-0.4-0.1-1-0.1-1.7,0.3c-0.8,0.3-1.4,0.6-1.9,0.9l-0.8,0.5
			c-1.3-0.3-2.7-0.6-4-0.6c-1.4,0-2.8,0.2-4,0.6c-0.3-0.2-0.5-0.3-0.9-0.6c-0.3-0.3-0.9-0.5-1.8-0.8c-0.8-0.3-1.4-0.4-1.8-0.3
			c-0.6,1.6-0.7,3-0.2,4.3c-1.1,1.2-1.7,2.7-1.7,4.3c0,1.2,0.2,2.3,0.4,3.2c0.3,0.9,0.7,1.7,1.1,2.3s1,1,1.7,1.4
			c0.7,0.4,1.3,0.7,2,0.8s1.3,0.3,2.2,0.3c-0.6,0.5-0.9,1.3-1,2.2c-0.3,0.2-0.6,0.3-0.9,0.3c-0.3,0.1-0.8,0.1-1.2,0.1
			c-0.5,0-0.9-0.2-1.4-0.5c-0.5-0.3-0.8-0.8-1.2-1.3c-0.3-0.4-0.6-0.8-1-1.1c-0.4-0.3-0.8-0.4-1-0.5l-0.4-0.1c-0.3,0-0.5,0-0.6,0.1
			c-0.1,0.1-0.2,0.2-0.1,0.3c0,0.1,0.1,0.2,0.2,0.3c0.1,0.1,0.2,0.2,0.3,0.3l0.2,0.1c0.3,0.2,0.6,0.4,0.9,0.8
			c0.3,0.4,0.5,0.8,0.7,1.1l0.3,0.5c0.2,0.5,0.5,1,0.9,1.3s0.9,0.5,1.4,0.7c0.5,0.1,1,0.2,1.5,0.2c0.5,0,0.8,0,1.2-0.1l0.5-0.1
			c0,0.5,0,1.3,0,2.2s0,1.4,0,1.4c0,0.3-0.1,0.5-0.3,0.7c-0.2,0.2-0.3,0.3-0.5,0.3s-0.4,0-0.7,0h-4.8c-1.7,0-3.1-0.6-4.3-1.8
			c-1.2-1.2-1.8-2.6-1.8-4.3v-20.2c0-1.7,0.6-3.1,1.8-4.3c1.2-1.2,2.6-1.8,4.3-1.8h20.2c1.7,0,3.1,0.6,4.3,1.8
			C1117,179.6,1117.6,181,1117.6,182.7L1117.6,182.7z"/>
		<g>
			<text transform="matrix(1 0 0 1 1131.6166 202.1562)" fill="#2BACB5" font-family="'Roboto-Thin'" font-size="23.8652px">has a public repository on GitHub.</text>
		</g>
	</g>
	<g id="node">
		<g>
			<path fill="#2BACB5" d="M1273.8,75.4c0-0.4-0.2-0.7-0.5-0.9l-8.9-5.2c-0.1-0.1-0.3-0.1-0.5-0.1h-0.1c-0.2,0-0.3,0.1-0.5,0.1
				l-8.9,5.2c-0.3,0.2-0.5,0.5-0.5,0.9v13.9c0,0.2,0.1,0.4,0.3,0.5s0.4,0.1,0.5,0l5.3-3.1c0.3-0.2,0.5-0.5,0.5-0.9v-6.5
				c0-0.4,0.2-0.7,0.5-0.9l2.2-1.3c0.2-0.1,0.3-0.1,0.5-0.1c0.2,0,0.4,0,0.5,0.1l2.2,1.3c0.3,0.2,0.5,0.5,0.5,0.9v6.5
				c0,0.4,0.2,0.7,0.5,0.9l5.3,3.1c0.2,0.1,0.4,0.1,0.5,0c0.2-0.1,0.3-0.3,0.3-0.5L1273.8,75.4z"/>
			<path fill="#2BACB5" d="M1321.7,56.3c-0.2-0.1-0.4-0.1-0.5,0c-0.2,0.1-0.3,0.3-0.3,0.5v13.7c0,0.1-0.1,0.3-0.2,0.3
				c-0.1,0.1-0.3,0.1-0.4,0l-2.2-1.3c-0.3-0.2-0.7-0.2-1.1,0l-8.9,5.2c-0.3,0.2-0.5,0.5-0.5,0.9v10.4c0,0.4,0.2,0.7,0.5,0.9l8.9,5.2
				c0.3,0.2,0.7,0.2,1.1,0l8.9-5.2c0.3-0.2,0.5-0.5,0.5-0.9V60.2c0-0.4-0.2-0.7-0.5-0.9L1321.7,56.3z M1320.8,82.6
				c0,0.1-0.1,0.2-0.1,0.2l-3.1,1.7c-0.1,0-0.2,0-0.3,0l-3.1-1.7c-0.1,0-0.1-0.1-0.1-0.2V79c0-0.1,0.1-0.2,0.1-0.2l3.1-1.7
				c0.1-0.1,0.2-0.1,0.3,0l3.1,1.7c0.1,0.1,0.1,0.1,0.1,0.2V82.6z"/>
			<path fill="#2BACB5" d="M1353.7,78.9c0.3-0.2,0.5-0.5,0.5-0.9v-2.5c0-0.4-0.2-0.7-0.5-0.9l-8.9-5.2c-0.3-0.2-0.7-0.2-1.1,0
				l-8.9,5.2c-0.3,0.2-0.5,0.5-0.5,0.9v10.4c0,0.4,0.2,0.7,0.5,0.9l8.9,5.1c0.3,0.2,0.7,0.2,1,0l5.4-2.9c0.2-0.1,0.3-0.3,0.3-0.5
				c0-0.2-0.1-0.4-0.3-0.5l-9-5.2c-0.2-0.1-0.3-0.3-0.3-0.5v-3.3c0-0.2,0.1-0.4,0.3-0.5l2.8-1.6c0.2-0.1,0.4-0.1,0.5,0l2.8,1.6
				c0.2,0.1,0.3,0.3,0.3,0.5v2.5c0,0.2,0.1,0.4,0.3,0.5s0.4,0.1,0.5,0L1353.7,78.9z"/>
			<path fill="#2BACB5" d="M1290.1,69.4c0.3-0.2,0.7-0.2,1.1,0l8.9,5.2c0.3,0.2,0.5,0.5,0.5,0.9v10.4c0,0.4-0.2,0.7-0.5,0.9
				l-8.9,5.2c-0.3,0.2-0.7,0.2-1.1,0l-8.9-5.2c-0.3-0.2-0.5-0.5-0.5-0.9V75.5c0-0.4,0.2-0.7,0.5-0.9L1290.1,69.4z"/>
			<path fill="#2BACB5" d="M1371.2,92c-0.3,0-0.6-0.1-0.9-0.2l-2.8-1.6c-0.4-0.2-0.2-0.3-0.1-0.4c0.6-0.2,0.7-0.2,1.3-0.6
				c0.1,0,0.1,0,0.2,0l2.1,1.3c0.1,0,0.2,0,0.3,0l8.4-4.9c0.1,0,0.1-0.1,0.1-0.2v-9.8c0-0.1,0-0.2-0.1-0.2l-8.4-4.9
				c-0.1,0-0.2,0-0.3,0l-8.4,4.9c-0.1,0-0.1,0.1-0.1,0.2v9.8c0,0.1,0.1,0.2,0.1,0.2l2.3,1.3c1.2,0.6,2-0.1,2-0.8v-9.7
				c0-0.1,0.1-0.2,0.2-0.2h1.1c0.1,0,0.2,0.1,0.2,0.2v9.7c0,1.6-0.9,2.6-2.5,2.6c-0.5,0-0.9,0-1.9-0.5l-2.2-1.3
				c-0.5-0.3-0.9-0.9-0.9-1.5v-9.8c0-0.6,0.3-1.2,0.9-1.5l8.4-4.9c0.5-0.3,1.2-0.3,1.7,0l8.4,4.9c0.5,0.3,0.9,0.9,0.9,1.5v9.8
				c0,0.6-0.3,1.2-0.9,1.5l-8.4,4.9C1371.8,92,1371.5,92,1371.2,92z"/>
			<path fill="#2BACB5" d="M1373.7,85.3c-3.7,0-4.5-1.7-4.5-3.2c0-0.1,0.1-0.2,0.2-0.2h1.1c0.1,0,0.2,0.1,0.2,0.2
				c0.2,1.1,0.6,1.6,2.8,1.6c1.8,0,2.5-0.4,2.5-1.3c0-0.5-0.2-0.9-2.9-1.2c-2.3-0.2-3.8-0.7-3.8-2.5c0-1.7,1.4-2.7,3.9-2.7
				c2.7,0,4.1,0.9,4.3,2.9c0,0.1,0,0.1-0.1,0.2c0,0-0.1,0.1-0.2,0.1h-1.1c-0.1,0-0.2-0.1-0.2-0.2c-0.3-1.1-0.9-1.5-2.6-1.5
				c-1.9,0-2.1,0.7-2.1,1.2c0,0.6,0.3,0.8,2.8,1.1c2.6,0.3,3.9,0.8,3.9,2.6C1378,84.3,1376.5,85.3,1373.7,85.3z"/>
			<g>
				<path fill="#2BACB5" d="M1385.4,69.3v0.2h-0.7v1.8h-0.3v-1.8h-0.7v-0.2H1385.4z"/>
				<path fill="#2BACB5" d="M1385.6,69.3h0.4l0.6,1.8l0.6-1.8h0.4v2.1h-0.3v-1.2c0,0,0-0.1,0-0.2s0-0.2,0-0.3l-0.6,1.7h-0.3
					l-0.6-1.7v0.1c0,0.1,0,0.1,0,0.2s0,0.2,0,0.2v1.2h-0.3L1385.6,69.3L1385.6,69.3L1385.6,69.3z"/>
			</g>
			<path fill="#2BACB5" d="M1344.2,78.5c0.1,0,0.1,0,0.2,0l1.7,1c0.1,0,0.1,0.1,0.1,0.2v2c0,0.1,0,0.1-0.1,0.2l-1.7,1
				c-0.1,0-0.1,0-0.2,0l-1.7-1c-0.1,0-0.1-0.1-0.1-0.2v-2c0-0.1,0-0.1,0.1-0.2L1344.2,78.5z"/>
		</g>
		<text transform="matrix(1 0 0 1 1085.4595 88.8281)" fill="#2BACB5" font-family="'Roboto-Thin'" font-size="23.8652px">is powered by:</text>
	</g>

	<g id="heroku" transform="matrix(1, 0, 0, 1, 0, -11)">
  <g>
    <polygon fill-rule="evenodd" clip-rule="evenodd" fill="#2BACB5" points="1253.1,122.4 1269.1,150.7 1237.2,150.7"/>
	  <path fill-rule="evenodd" clip-rule="evenodd" fill="#2BACB5" d="M1287.7,144.1h12.1V142h-9l8.9-12.8v-1.8h-11.8v2.1h8.8
				l-8.9,12.8V144.1L1287.7,144.1z M1312.4,144.1h10.8V142h-8.4v-5.4h7.3v-2.1h-7.3v-5h8.4v-2.1h-10.8L1312.4,144.1L1312.4,144.1z
				 M1336.2,144.1h10.6V142h-4v-12.5h4v-2.1h-10.6v2.1h4.1V142h-4.1V144.1z M1364.2,144.1h2.4v-14.6h5.7v-2.1h-13.7v2.1h5.6V144.1
				L1364.2,144.1z"/>
  </g>
		<text transform="matrix(1 0 0 1 1085.4595 145.1913)" fill="#2BACB5" font-family="'Roboto-Thin'" font-size="23.8652px" style="white-space: pre;">is hosted on:</text>
</g>

	<text transform="matrix(1 0 0 1 1085.4603 42.7616)" fill="#2BACB5" font-family="'Roboto-Thin'" font-size="47.7304px">This website:</text>
	<g id="medium">
		<text transform="matrix(1 0 0 1 1132.8278 -84.3644)" fill="#2BACB5" font-family="'Roboto-Thin'" font-size="23.8652px">Medium</text>
		<g>
			<path fill="#2BACB5" d="M1119.1-101.6C1119.1-101.6,1119.1-101.6,1119.1-101.6L1119.1-101.6l-9.2-4.6c-0.1,0-0.1-0.1-0.2-0.1
				c-0.1,0-0.2,0-0.3,0c-0.4,0-0.7,0.2-0.9,0.5l-5.3,8.6l6.6,10.8l9.2-15C1119.2-101.5,1119.1-101.6,1119.1-101.6z"/>
			<polygon fill="#2BACB5" points="1100.3,-99.2 1100.3,-89.4 1109,-85.1 			"/>
			<path fill="#2BACB5" d="M1110.3-84.4l7.2,3.6c0.9,0.5,1.7,0.1,1.7-0.7v-17.2L1110.3-84.4z"/>
			<path fill="#2BACB5" d="M1098.8-101.6l-9-4.5c-0.2-0.1-0.3-0.1-0.5-0.1c-0.4,0-0.7,0.3-0.7,0.8V-86c0,0.5,0.4,1.1,0.8,1.4l7.9,4
				c0.2,0.1,0.4,0.1,0.6,0.1c0.5,0,0.8-0.4,0.8-1L1098.8-101.6C1098.9-101.6,1098.9-101.6,1098.8-101.6z"/>
		</g>
	</g>
	<g id="linkedin">
		<text transform="matrix(1 0 0 1 1134.2368 -181.9218)" fill="#2BACB5" font-family="'Roboto-Thin'" font-size="23.8652px">LinkedIn profile</text>
		<path fill="#2BACB5" d="M1093.9-181.6h3.7v-11.1h-3.7V-181.6z M1097.9-196.2c0-0.5-0.3-1.1-0.5-1.3c-0.4-0.4-0.9-0.5-1.5-0.5
			s-1.2,0.1-1.5,0.5c-0.4,0.4-0.5,0.8-0.5,1.3c0,0.5,0.1,1.1,0.5,1.3c0.4,0.4,0.9,0.5,1.5,0.5l0,0c0.7,0,1.2-0.1,1.6-0.5
			C1097.7-195.3,1097.9-195.7,1097.9-196.2L1097.9-196.2z M1107.3-181.6h3.7v-6.4c0-1.6-0.4-2.9-1.2-3.7c-0.8-0.8-1.9-1.3-3-1.3
			c-1.5,0-2.5,0.7-3.3,1.9l0,0v-1.6h-3.7c0,0.7,0,4.4,0,11.1h3.7v-6.2c0-0.4,0-0.7,0.1-0.9c0.1-0.4,0.4-0.7,0.8-0.9
			c0.3-0.3,0.7-0.4,1.2-0.4c1.2,0,1.9,0.8,1.9,2.5L1107.3-181.6L1107.3-181.6z M1114.9-197.7v15.5c0,1.3-0.4,2.4-1.3,3.3
			s-2,1.3-3.3,1.3h-15.5c-1.3,0-2.4-0.4-3.3-1.3s-1.3-2-1.3-3.3v-15.5c0-1.3,0.4-2.4,1.3-3.3s2-1.3,3.3-1.3h15.5
			c1.3,0,2.4,0.4,3.3,1.3S1114.9-199,1114.9-197.7z"/>
	</g>
	<g id="instagram">
		<text transform="matrix(1 0 0 1 1132.2526 -31.0253)" fill="#2BACB5" font-family="'Roboto-Thin'" font-size="23.8652px">Instagram</text>
		<path fill="#2BACB5" d="M1102.8-50.6c3.4,0,3.8,0,5.2,0.1c1.2,0.1,1.9,0.3,2.4,0.4c0.6,0.2,1,0.5,1.5,1c0.4,0.4,0.7,0.9,1,1.5
			c0.2,0.5,0.4,1.1,0.4,2.4c0.1,1.3,0.1,1.8,0.1,5.2c0,3.4,0,3.8-0.1,5.2c-0.1,1.2-0.3,1.9-0.4,2.4c-0.2,0.6-0.5,1-1,1.5
			c-0.4,0.4-0.9,0.7-1.5,1c-0.5,0.2-1.1,0.4-2.4,0.4c-1.3,0.1-1.8,0.1-5.2,0.1c-3.4,0-3.8,0-5.2-0.1c-1.2-0.1-1.9-0.3-2.4-0.4
			c-0.6-0.2-1-0.5-1.5-1c-0.4-0.4-0.7-0.9-1-1.5c-0.2-0.5-0.4-1.1-0.4-2.4c-0.1-1.3-0.1-1.8-0.1-5.2c0-3.4,0-3.8,0.1-5.2
			c0.1-1.2,0.3-1.9,0.4-2.4c0.2-0.6,0.5-1,1-1.5c0.4-0.4,0.9-0.7,1.5-1c0.5-0.2,1.1-0.4,2.4-0.4C1099-50.5,1099.4-50.6,1102.8-50.6
			 M1102.8-52.9c-3.5,0-3.9,0-5.3,0.1c-1.4,0.1-2.3,0.3-3.1,0.6c-0.8,0.3-1.6,0.8-2.3,1.5c-0.7,0.7-1.1,1.4-1.5,2.3
			c-0.3,0.8-0.5,1.7-0.6,3.1c-0.1,1.4-0.1,1.8-0.1,5.3c0,3.5,0,3.9,0.1,5.3c0.1,1.4,0.3,2.3,0.6,3.1c0.3,0.8,0.8,1.6,1.5,2.3
			c0.7,0.7,1.4,1.1,2.3,1.5c0.8,0.3,1.7,0.5,3.1,0.6c1.4,0.1,1.8,0.1,5.3,0.1c3.5,0,3.9,0,5.3-0.1c1.4-0.1,2.3-0.3,3.1-0.6
			c0.8-0.3,1.6-0.8,2.3-1.5c0.7-0.7,1.1-1.4,1.5-2.3c0.3-0.8,0.5-1.7,0.6-3.1c0.1-1.4,0.1-1.8,0.1-5.3c0-3.5,0-3.9-0.1-5.3
			c-0.1-1.4-0.3-2.3-0.6-3.1c-0.3-0.8-0.8-1.6-1.5-2.3c-0.7-0.7-1.4-1.1-2.3-1.5c-0.8-0.3-1.7-0.5-3.1-0.6
			C1106.7-52.8,1106.3-52.9,1102.8-52.9L1102.8-52.9z"/>
		<path fill="#2BACB5" d="M1102.8-46.6c-3.6,0-6.6,2.9-6.6,6.6s2.9,6.6,6.6,6.6c3.6,0,6.6-2.9,6.6-6.6S1106.5-46.6,1102.8-46.6z
			 M1102.8-35.8c-2.4,0-4.3-1.9-4.3-4.3s1.9-4.3,4.3-4.3c2.4,0,4.3,1.9,4.3,4.3S1105.2-35.8,1102.8-35.8z"/>
		<circle fill="#2BACB5" cx="1109.7" cy="-46.9" r="1.5"/>
	</g>
	<g id="contactresume">
		<path fill="#2BACB5" d="M1108.5-138.9v1.2c0,0.1,0,0.3-0.1,0.4c-0.1,0.1-0.3,0.1-0.4,0.1h-12.7c-0.1,0-0.3,0-0.4-0.1
			c-0.1-0.1-0.1-0.3-0.1-0.4v-1.2c0-0.1,0-0.3,0.1-0.4c0.1-0.1,0.3-0.1,0.4-0.1h12.7c0.1,0,0.3,0,0.4,0.1
			C1108.5-139.2,1108.5-139.1,1108.5-138.9z M1108.5-143.6v1.2c0,0.1,0,0.3-0.1,0.4c-0.1,0.1-0.3,0.1-0.4,0.1h-12.7
			c-0.1,0-0.3,0-0.4-0.1c-0.1-0.1-0.1-0.3-0.1-0.4v-1.2c0-0.1,0-0.3,0.1-0.4c0.1-0.1,0.3-0.1,0.4-0.1h12.7c0.1,0,0.3,0,0.4,0.1
			S1108.5-143.7,1108.5-143.6z M1092.4-132.6h18.4v-13.8h-7.6c-0.5,0-0.9-0.1-1.2-0.5c-0.4-0.4-0.5-0.8-0.5-1.2v-7.6h-9.3
			L1092.4-132.6L1092.4-132.6z M1104-148.7h6.8c-0.1-0.4-0.3-0.5-0.4-0.8l-5.7-5.7c-0.1-0.1-0.4-0.3-0.8-0.4L1104-148.7L1104-148.7z
			 M1113.1-148.2v16.2c0,0.5-0.1,0.9-0.5,1.2c-0.4,0.4-0.8,0.5-1.2,0.5h-19.6c-0.5,0-0.9-0.1-1.2-0.5c-0.4-0.4-0.5-0.8-0.5-1.2
			v-24.3c0-0.5,0.1-0.9,0.5-1.2c0.4-0.4,0.8-0.5,1.2-0.5h11.5c0.5,0,1.1,0.1,1.6,0.4c0.5,0.3,1.1,0.5,1.3,0.9l5.6,5.6
			c0.4,0.4,0.7,0.8,0.9,1.3C1113-149.1,1113.1-148.6,1113.1-148.2L1113.1-148.2z"/>
		<g>
			<text transform="matrix(1 0 0 1 1134.8812 -133.0322)" fill="#2BACB5" font-family="'Roboto-Thin'" font-size="23.8652px">View resume</text>
		</g>
	</g>
	<g id="email">
		<text transform="matrix(1 0 0 1 1135.932 -230.895)" fill="#2BACB5" font-family="'Roboto-Thin'" font-size="23.8652px">nesrinesghaier10@gmail.com</text>
		<path fill="#2BACB5" d="M1111.7-229.9v-9.9c-0.3,0.3-0.5,0.5-0.9,0.8c-2.3,1.7-4.1,3.2-5.4,4.4c-0.4,0.4-0.8,0.7-1.1,0.8
			c-0.3,0.3-0.7,0.4-1.1,0.7c-0.5,0.3-0.9,0.3-1.3,0.3l0,0c-0.4,0-0.8-0.1-1.3-0.3c-0.5-0.3-0.8-0.4-1.1-0.7
			c-0.3-0.3-0.7-0.5-1.1-0.8c-1.3-1.2-3.2-2.5-5.4-4.4c-0.3-0.3-0.7-0.5-0.9-0.8v9.9c0,0.1,0,0.3,0.1,0.3c0.1,0.1,0.1,0.1,0.3,0.1
			h19c0.1,0,0.3,0,0.3-0.1C1111.7-229.6,1111.7-229.7,1111.7-229.9L1111.7-229.9z M1111.7-243.4v-0.3c0,0,0,0,0-0.1s0-0.1,0-0.1
			s0,0-0.1-0.1c0-0.1,0-0.1-0.1-0.1h-0.1h-19c-0.1,0-0.3,0-0.3,0.1c-0.1,0.1-0.1,0.1-0.1,0.3c0,1.5,0.7,2.7,1.9,3.7
			c1.6,1.3,3.3,2.7,5.2,4.1c0,0,0.1,0.1,0.4,0.4c0.3,0.3,0.4,0.4,0.5,0.5c0.1,0.1,0.4,0.3,0.5,0.4c0.3,0.1,0.4,0.3,0.7,0.4
			c0.1,0.1,0.4,0.1,0.5,0.1l0,0c0.1,0,0.4,0,0.5-0.1c0.1-0.1,0.4-0.1,0.7-0.4c0.3-0.1,0.4-0.3,0.5-0.4s0.4-0.3,0.5-0.5
			c0.3-0.3,0.4-0.3,0.4-0.4c1.9-1.5,3.4-2.8,5.2-4.1c0.5-0.4,0.9-0.9,1.3-1.5C1111.4-242.3,1111.7-242.9,1111.7-243.4L1111.7-243.4z
			 M1113.3-243.8v13.9c0,0.5-0.3,1.1-0.7,1.5s-0.9,0.7-1.5,0.7h-19c-0.5,0-1.1-0.1-1.5-0.7c-0.4-0.4-0.7-0.9-0.7-1.5v-13.9
			c0-0.5,0.3-1.1,0.7-1.5c0.4-0.4,0.9-0.7,1.5-0.7h19c0.5,0,1.1,0.3,1.5,0.7C1113.1-244.9,1113.3-244.5,1113.3-243.8z"/>
	</g>
	<text transform="matrix(1 0 0 1 1085.4603 -318.587)" fill="#2BACB5" font-family="'Roboto-Thin'" font-size="47.7304px">To stay connected:</text>
	<text transform="matrix(1 0 0 1 1085.46 835)" fill="#2BACB5" font-family="'Roboto-Thin'" font-size="80.2522px">Bye!</text>
	<g id="twitter">
		<text transform="matrix(1 0 0 1 1135.9325 -272.895)" fill="#2BACB5" font-family="'Roboto-Thin'" font-size="23.8652px">@nesrine_sghaier</text>
		<path fill="#2BACB5" d="M1096.6-268.3c10.7,0,16.6-8.9,16.6-16.6c0-0.3,0-0.5,0-0.8c1.1-0.8,2.1-1.8,2.9-3
			c-1.1,0.5-2.2,0.8-3.3,0.9c1.2-0.7,2.1-1.9,2.6-3.2c-1.1,0.7-2.4,1.2-3.7,1.4c-2.2-2.3-5.9-2.5-8.2-0.3c-1.5,1.4-2.2,3.5-1.7,5.6
			c-4.7-0.2-9-2.4-12-6.1c-1.5,2.7-0.8,6.1,1.8,7.8c-0.9,0-1.8-0.3-2.6-0.7c0,0,0,0,0,0.1c0,2.8,2,5.2,4.7,5.7
			c-0.9,0.2-1.8,0.3-2.6,0.1c0.8,2.4,2.9,4,5.4,4c-2.1,1.6-4.6,2.5-7.2,2.5c-0.5,0-0.9,0-1.4-0.1
			C1090.3-269.2,1093.4-268.3,1096.6-268.3"/>
	</g>
</g>
<rect id="noskillwordshere" x="517.3" y="-368" fill="none" width="366.9" height="410.8"/>
</svg>
