<?xml version="1.0" encoding="utf-8"?>
<!-- Generator: Adobe Illustrator 19.0.0, SVG Export Plug-In . SVG Version: 6.00 Build 0)  -->
<svg version="1.1" id="svg3" xmlns="http://www.w3.org/2000/svg" xmlns:xlink="http://www.w3.org/1999/xlink" x="0px"
     y="0px"
     viewBox="496 -368 1024 768" enable-background="new 496 -368 1024 768" xml:space="preserve">
<g id="bg2_1_">
	<rect x="-3360.1" y="-2659.6" fill="#44C650" width="8736.7" height="5396"/>
</g>
    <g id="objects" inkscape:version="0.48.4 r9939" sodipodi:docname="drawing.svg"
       xmlns:cc="http://creativecommons.org/ns#" xmlns:sodipodi="http://sodipodi.sourceforge.net/DTD/sodipodi-0.dtd"
       xmlns:rdf="http://www.w3.org/1999/02/22-rdf-syntax-ns#" xmlns:dc="http://purl.org/dc/elements/1.1/"
       xmlns:svg="http://www.w3.org/2000/svg" xmlns:inkscape="http://www.inkscape.org/namespaces/inkscape">
        <g id="ipad">
		<path fill="#0F0D10" d="M1386-67.4v-12c0-4.4-3.6-8-8-8h-144c-4.4,0-8,3.6-8,8v12H1386z"/>
            <path fill="#0F0D10" d="M1226,100.6v12c0,4.4,3.6,8,8,8h144c4.4,0,8-3.6,8-8v-12H1226L1226,100.6z"/>
            <rect x="1226" y="-67.4" fill="#0F0D10" width="160" height="168"/>
            <rect x="1234" y="-67.4" fill="#C4C3C4" width="144" height="168"/>
            <circle fill="#272528" cx="1306" cy="110.6" r="6"/>
            <g>
			<rect x="1234" y="-67.4" fill="#E6E9ED" width="144" height="168"/>
                <rect id="s2-bg1" x="1234" y="36.6" fill="#FFFFFF" width="144" height="64"/>
                <g>
				<rect id="g1" x="1258" y="-51.4" fill="#44C650" width="96" height="48"/>
                    <g id="g2g">
					<rect id="g2" x="1274" y="11.6" fill="#434A54" width="64" height="2"/>
                        <rect id="g3" x="1274" y="19.6" fill="#434A54" width="64" height="2"/>
                        <rect id="g4" x="1274" y="15.6" fill="#434A54" width="64" height="2"/>
                        <rect id="g5" x="1282" y="23.6" fill="#434A54" width="48" height="2"/>
				</g>
                    <rect id="g21" x="1266" y="2.6" fill="#4FC1E9" width="80" height="4"/>
			</g>
                <g>
				<g id="g6g">
					<rect id="g6" x="1290" y="68.6" fill="#AAB2BD" width="32" height="2"/>
                    <rect id="g7" x="1290" y="76.6" fill="#AAB2BD" width="32" height="2"/>
                    <rect id="g8" x="1290" y="72.6" fill="#AAB2BD" width="32" height="2"/>
                    <rect id="g9" x="1290" y="80.6" fill="#AAB2BD" width="16" height="2"/>
				</g>
                    <rect id="g10" x="1290" y="48.6" fill="#44C650" width="32" height="16"/>
			</g>
                <g>
				<g id="g11g">
					<rect id="g11" x="1242" y="80.6" fill="#AAB2BD" width="16" height="2"/>
                    <rect id="g12" x="1242" y="72.6" fill="#AAB2BD" width="32" height="2"/>
                    <rect id="g13" x="1242" y="76.6" fill="#AAB2BD" width="32" height="2"/>
                    <rect id="g14" x="1242" y="68.6" fill="#AAB2BD" width="32" height="2"/>
				</g>
                    <rect id="g15" x="1242" y="48.6" fill="#44C650" width="32" height="16"/>
			</g>
                <g>
				<rect id="g16" x="1338" y="68.6" fill="#AAB2BD" width="32" height="2"/>
                    <rect id="g17" x="1338" y="76.6" fill="#AAB2BD" width="32" height="2"/>
                    <rect id="g18" x="1338" y="72.6" fill="#AAB2BD" width="32" height="2"/>
                    <rect id="g19" x="1338" y="80.6" fill="#AAB2BD" width="16" height="2"/>
                    <rect id="g20" x="1338" y="48.6" fill="#44C650" width="32" height="16"/>
			</g>
                <rect x="1234" y="-67.4" fill="#4B4A4C" width="144" height="8"/>
		</g>
	</g>
        <g id="imac">
	<rect id="gridbg" x="882.9" y="-187.4" fill="#F5B8B6" width="299.5" height="165.8"/>
            <g id="grid">
		<rect id="grid1" x="902" y="-187.4" fill="#FFFFFF" width="6.4" height="166"/>
                <rect id="grid2" x="928" y="-187.4" fill="#FFFFFF" width="6.4" height="166"/>
                <rect id="grid3" x="953" y="-187.4" fill="#FFFFFF" width="6.4" height="166"/>
                <rect id="grid4" x="979" y="-187.4" fill="#FFFFFF" width="6.4" height="166"/>
                <rect id="grid5" x="1004" y="-187.4" fill="#FFFFFF" width="6.4" height="166"/>
                <rect id="grid6" x="1030" y="-187.4" fill="#FFFFFF" width="6.4" height="166"/>
                <rect id="grid7" x="1055" y="-187.4" fill="#FFFFFF" width="6.4" height="166"/>
                <rect id="grid8" x="1081" y="-187.4" fill="#FFFFFF" width="6.4" height="166"/>
                <rect id="grid9" x="1106" y="-187.4" fill="#FFFFFF" width="6.4" height="166"/>
                <rect id="grid10" x="1132" y="-187.4" fill="#FFFFFF" width="6.4" height="166"/>
                <rect id="grid11" x="1157" y="-187.4" fill="#FFFFFF" width="6.4" height="166"/>
		</g>
            <path id="bg1" fill="#F5F7FA"
                  d="M1182.4-187.4c0,0,0,0,0,12.8v153.1h-300v-153.1c0-12.8,0-12.8,0-12.8H1182.4L1182.4-187.4z"/>
            <rect id="bg2" x="882.4" y="-110.8" fill="#E6E9ED" width="300" height="76.6"/>
            <g id="b4">
			<rect id="f22" x="1106.5" y="-48.6" fill="#434A54" width="28.6" height="3.2"/>
                <rect id="f21" x="1106.5" y="-61.4" fill="#434A54" width="57.1" height="3.2"/>
                <rect id="f20" x="1106.5" y="-55" fill="#434A54" width="57.1" height="3.2"/>
                <rect id="f19" x="1106.5" y="-67.8" fill="#434A54" width="57.1" height="3.2"/>
		</g>
            <rect id="f18" x="1106.5" y="-99.7" fill="#3498DB" width="57.1" height="25.5"/>
            <g id="b3">
			<rect id="f17" x="1003.8" y="-67.8" fill="#434A54" width="57.1" height="3.2"/>
                <rect id="f16" x="1003.8" y="-55" fill="#434A54" width="57.1" height="3.2"/>
                <rect id="f15" x="1003.8" y="-61.4" fill="#434A54" width="57.1" height="3.2"/>
                <rect id="f14" x="1003.8" y="-48.6" fill="#434A54" width="28.6" height="3.2"/>
		</g>
            <rect id="f13" x="1003.8" y="-99.7" fill="#3498DB" width="57.1" height="25.5"/>
            <g id="b2">
			<rect id="f12" x="902.1" y="-67.8" fill="#434A54" width="57.1" height="3.2"/>
                <rect id="f11" x="902.1" y="-55" fill="#434A54" width="57.1" height="3.2"/>
                <rect id="f10" x="902.1" y="-61.4" fill="#434A54" width="57.1" height="3.2"/>
                <rect id="f9" x="902.1" y="-48.6" fill="#434A54" width="28.6" height="3.2"/>
		</g>
            <rect id="f8" x="902.1" y="-99.7" fill="#3498DB" width="57.1" height="25.5"/>
            <g id="b1">
			<rect id="f6" x="1018" y="-172.2" fill="#E74C3C" width="110.7" height="6.4"/>
                <rect id="f5" x="1018" y="-133.9" fill="#39B54A" width="39.3" height="12.8"/>
                <rect id="f4" x="1018" y="-161" fill="#656D78" width="110.7" height="3.2"/>
                <rect id="f3" x="1018" y="-148.3" fill="#656D78" width="110.7" height="3.2"/>
                <rect id="f2" x="1018" y="-154.7" fill="#656D78" width="110.7" height="3.2"/>
                <rect id="f7" x="1018" y="-141.9" fill="#656D78" width="82.1" height="3.2"/>
		</g>
            <rect id="f1" x="902.1" y="-172.2" fill="#3498DB" width="110.7" height="51"/>
	</g>
        <g id="diagramma1">
		<polygon fill="#39B54A" points="736.8,-2 709.1,-35.2 561.2,-46.1 543.2,199 721.1,212.1 		"/>
            <polygon fill="#F5F7FA" points="713.1,-38.8 565.2,-49.7 547.2,195.4 725,208.5 740.8,-5.6 		"/>
            <polygon fill="#8996A9" points="710.8,-7.8 740.8,-5.6 713.1,-38.8 		"/>

<g transform="matrix(1.077162, 0.090367, -0.090367, 1.077162, 566.471619, 16.734623)">
  <g class="st0" style="display: none;">
    <g class="st1">
      <image transform="matrix(.2937 0 0 .2937 1.7375 3)" width="646" height="480" overflow="visible" xlink:href="2DEED65A3C767D64.png"/>
    </g>
  </g>
  <polygon  id="dg9" points="141.2 120.7 119.7 120.7 119.7 119.7 140.2 119.7 140.2 87.8 141.2 87.8"/>
  <path id="dg1" class="st2" d="m35.2 62h-27.4c-0.8 0-1.4-0.6-1.4-1.4v-38.7c0-0.8 0.6-1.4 1.4-1.4h27.4c0.8 0 1.4 0.6 1.4 1.4v38.6c0 0.9-0.6 1.5-1.4 1.5z" style="fill: rgb(152, 191, 218);"/>
  <rect id="dg1" class="st3" x="6.4" y="26.2" width="30.2" height="32.2" style="fill: rgb(229, 229, 229);"/>
  <rect id="dg1" class="st4" x="6.4" y="52.2" width="30.2" height="6.2" style="fill: rgb(198, 197, 197);"/>
  <rect id="dg1" class="st5" x="7.8" y="22" width="4.5" height="2.8" style="fill: rgb(70, 83, 164);"/>
  <line id="dg1" class="st6" x1="15" x2="32.8" y1="23.4" y2="23.4" style="fill: rgb(255, 255, 255);"/>
  <path id="dg1" d="m32.8 24.4h-17.8c-0.6 0-1-0.4-1-1s0.4-1 1-1h17.8c0.6 0 1 0.4 1 1s-0.5 1-1 1z"/>
  <line id="dg1" class="st6" x1="14.8" x2="25.7" y1="34" y2="34" style="fill: rgb(255, 255, 255);"/>
  <path id="dg1" d="m25.7 34.5h-10.9c-0.3 0-0.5-0.2-0.5-0.5s0.2-0.5 0.5-0.5h10.9c0.3 0 0.5 0.2 0.5 0.5s-0.2 0.5-0.5 0.5z"/>
  <line id="dg1" class="st6" x1="15" x2="30.5" y1="39.8" y2="39.8" style="fill: rgb(255, 255, 255);"/>
  <path id="dg1" d="m30.5 40.2h-15.5c-0.3 0-0.5-0.2-0.5-0.5s0.2-0.5 0.5-0.5h15.5c0.3 0 0.5 0.2 0.5 0.5s-0.2 0.5-0.5 0.5z"/>
  <line id="dg1" class="st6" x1="15" x2="30.5" y1="45.2" y2="45.2" style="fill: rgb(255, 255, 255);"/>
  <path id="dg1" d="m30.5 45.8h-15.5c-0.3 0-0.5-0.2-0.5-0.5s0.2-0.5 0.5-0.5h15.5c0.3 0 0.5 0.2 0.5 0.5s-0.2 0.5-0.5 0.5z"/>
  <path id="dg1" class="st7" d="m10.1 36.1v-2.5l-0.1 0.3 0.1 2.2z" style="fill: rgb(189, 152, 46);"/>
  <path id="dg1" class="st8" d="m11 32.8c0-0.2-0.1-0.5-0.3-0.7-0.3-0.3-0.8-0.4-1.2-0.2-0.3 0.2-0.5 0.6-0.5 1 0 0.3 0.3 0.6 0.6 0.7v0.2l-0.1 0.2h0.4v0.5l-0.1 0.1 0.2 0.2v0.1l-0.2 0.2v0.1l0.2 0.2v0.1l-0.1 0.1v0.2l0.3 0.3c0.1 0 0.1-0.1 0.2-0.2v-1.9s0-0.1 0.1-0.1h0.2l-0.2-0.2v-0.2c0.2-0.1 0.4-0.3 0.5-0.5v-0.2zm-1.3-0.4c0-0.1 0.1-0.2 0.2-0.3s0.3 0 0.4 0.1 0.1 0.2 0.1 0.3-0.2 0.2-0.3 0.2c-0.2 0-0.4-0.1-0.4-0.3z" style="fill: rgb(254, 221, 39);"/>
  <path id="dg1" class="st9" d="m10.1 36.3l-0.4-0.4v-0.3l0.1-0.2-0.2-0.2v-0.2l0.2-0.2-0.3-0.3 0.2-0.2v-0.2h-0.5l0.2-0.4c-0.3-0.2-0.6-0.5-0.6-0.8-0.1-0.4 0.2-0.9 0.6-1 0.4-0.2 1-0.1 1.3 0.2 0.2 0.2 0.3 0.5 0.3 0.7 0 0.1 0 0.2-0.1 0.4s-0.3 0.4-0.5 0.6l0.3 0.4h-0.4v1.9s0 0.1-0.2 0.2zm-0.2-0.5l0.2 0.2v-1.9c0-0.1 0.1-0.2 0.2-0.2 0 0-0.1-0.1 0-0.2 0-0.1 0.1-0.1 0.1-0.1 0.2-0.1 0.4-0.3 0.4-0.4s0.1-0.2 0.1-0.3c0-0.2-0.1-0.4-0.2-0.6-0.3-0.3-0.7-0.3-1.1-0.1-0.3 0.1-0.5 0.5-0.4 0.8 0 0.3 0.2 0.5 0.5 0.6 0.1 0 0.1 0.1 0.1 0.1v0.3h0.1c0.1 0 0.1 0 0.2 0.1l0.1 0.1v0.3c0 0.1 0 0.1-0.1 0.1l0.1 0.1c0.1 0.1 0.1 0.2 0 0.3l-0.2 0.2 0.2 0.2c0.1 0.1 0.1 0.2 0 0.3l-0.3 0.1zm0.1-2.9c-0.2 0-0.4-0.2-0.4-0.4v-0.1c0-0.2 0.1-0.3 0.2-0.4 0.2-0.1 0.4-0.1 0.5 0.1 0.1 0.1 0.2 0.3 0.1 0.5 0 0.1-0.2 0.3-0.4 0.3zm0-0.7c-0.2 0.1-0.2 0.1-0.2 0.2s0.1 0.2 0.2 0.2 0.2-0.1 0.2-0.1v-0.2c-0.1 0-0.1-0.1-0.2-0.1z" style="fill: rgb(255, 201, 43);"/>
  <rect id="dg1" class="st10" transform="matrix(.7071 .7071 -.7071 .7071 31.082 4.4601)" x="9.1" y="38.7" width="2" height="2" style="fill: rgb(189, 229, 237);"/>
  <rect id="dg1" class="st10" transform="matrix(.7071 .7071 -.7071 .7071 34.972 6.071)" x="9.1" y="44.2" width="2" height="2" style="fill: rgb(189, 229, 237);"/>
  <path id="dg1" class="st6" d="m25.2 56.2h-15.5c-0.3 0-0.5-0.2-0.5-0.5s0.2-0.5 0.5-0.5h15.5c0.3 0 0.5 0.2 0.5 0.5s-0.2 0.5-0.5 0.5z" style="fill: rgb(255, 255, 255);"/>
  <polygon id="dg1" class="st11" points="32 54.2 32 57.3 34.9 55.7" style="fill: rgb(103, 103, 103);"/>
  <path id="dg2" class="st2" d="m35.2 112.5h-27.4c-0.8 0-1.4-0.6-1.4-1.4v-38.7c0-0.8 0.6-1.4 1.4-1.4h27.4c0.8 0 1.4 0.6 1.4 1.4v38.6c0 0.9-0.6 1.5-1.4 1.5z" style="fill: rgb(152, 191, 218);"/>
  <rect id="dg2" class="st3" x="6.4" y="76.8" width="30.2" height="32.2" style="fill: rgb(229, 229, 229);"/>
  <rect id="dg2" class="st4" x="6.4" y="102.8" width="30.2" height="6.2" style="fill: rgb(198, 197, 197);"/>
  <rect id="dg2" class="st5" x="7.8" y="72.5" width="4.5" height="2.8" style="fill: rgb(70, 83, 164);"/>
  <line id="dg2" class="st6" x1="15" x2="32.8" y1="73.9" y2="73.9" style="fill: rgb(255, 255, 255);"/>
  <path id="dg2" d="m32.8 74.9h-17.8c-0.6 0-1-0.4-1-1s0.4-1 1-1h17.8c0.6 0 1 0.4 1 1s-0.5 1-1 1z"/>
  <line id="dg2" class="st6" x1="14.8" x2="25.7" y1="84.5" y2="84.5" style="fill: rgb(255, 255, 255);"/>
  <path id="dg2" d="M25.7,85H14.8c-0.3,0-0.5-0.2-0.5-0.5s0.2-0.5,0.5-0.5h10.9c0.3,0,0.5,0.2,0.5,0.5S26,85,25.7,85z"/>
  <line id="dg2" class="st6" x1="15" x2="30.5" y1="90.2" y2="90.2" style="fill: rgb(255, 255, 255);"/>
  <path id="dg2" d="m30.5 90.8h-15.5c-0.3 0-0.5-0.2-0.5-0.5s0.2-0.5 0.5-0.5h15.5c0.3 0 0.5 0.2 0.5 0.5s-0.2 0.5-0.5 0.5z"/>
  <line id="dg2" class="st6" x1="15" x2="30.5" y1="95.8" y2="95.8" style="fill: rgb(255, 255, 255);"/>
  <path id="dg2" d="m30.5 96.2h-15.5c-0.3 0-0.5-0.2-0.5-0.5s0.2-0.5 0.5-0.5h15.5c0.3 0 0.5 0.2 0.5 0.5s-0.2 0.5-0.5 0.5z"/>
  <path id="dg2" class="st7" d="m10.1 86.6v-2.5l-0.1 0.3 0.1 2.2z" style="fill: rgb(189, 152, 46);"/>
  <path id="dg2" class="st8" d="m11 83.3c0-0.2-0.1-0.5-0.3-0.7-0.3-0.3-0.8-0.4-1.2-0.2-0.3 0.2-0.5 0.6-0.5 1 0 0.3 0.3 0.6 0.6 0.7v0.2l-0.1 0.2h0.4v0.5h-0.2l0.2 0.2v0.1l-0.2 0.2v0.1l0.2 0.2v0.1l-0.1 0.1v0.2l0.3 0.3c0.1 0 0.1-0.1 0.2-0.2v-1.9s0-0.1 0.1-0.1h0.2l-0.2-0.2v-0.2c0.2-0.1 0.4-0.3 0.5-0.5 0.1 0.1 0.1 0 0.1-0.1zm-1.3-0.4c0-0.1 0.1-0.2 0.2-0.3s0.3 0 0.4 0.1 0.1 0.2 0.1 0.3-0.2 0.2-0.3 0.2c-0.2 0-0.4-0.1-0.4-0.3z" style="fill: rgb(254, 221, 39);"/>
  <path id="dg2" class="st9" d="m10.1 86.8l-0.4-0.4v-0.3l0.1-0.1-0.2-0.2v-0.2l0.2-0.2-0.3-0.4 0.2-0.2v-0.2h-0.5l0.2-0.4c-0.3-0.2-0.6-0.5-0.6-0.8-0.1-0.4 0.2-0.9 0.6-1 0.4-0.2 1-0.1 1.3 0.2 0.2 0.2 0.3 0.5 0.3 0.7 0 0.1 0 0.2-0.1 0.4s-0.3 0.4-0.5 0.6l0.3 0.4h-0.4v1.9s0 0.1-0.2 0.2zm-0.2-0.5l0.2 0.2v-1.9c0-0.1 0.1-0.2 0.2-0.2 0 0-0.1-0.1 0-0.2 0-0.1 0.1-0.1 0.1-0.1 0.2-0.1 0.4-0.3 0.4-0.4s0.1-0.2 0.1-0.3c0-0.2-0.1-0.4-0.2-0.6-0.3-0.3-0.7-0.3-1.1-0.1-0.3 0.1-0.5 0.5-0.4 0.8 0 0.3 0.2 0.5 0.5 0.6 0.1 0 0.1 0.1 0.1 0.1v0.3h0.1c0.1 0 0.1 0 0.2 0.1l0.1 0.1v0.3c0 0.1 0 0.1-0.1 0.1l0.1 0.1c0.1 0.1 0.1 0.2 0 0.3l-0.2 0.2 0.2 0.2c0.1 0.1 0.1 0.2 0 0.3l-0.3 0.1zm0.1-2.9c-0.2 0-0.4-0.2-0.4-0.4v-0.1c0-0.2 0.1-0.3 0.2-0.4 0.2-0.1 0.4-0.1 0.5 0.1 0.1 0.1 0.2 0.3 0.1 0.5 0 0.1-0.2 0.3-0.4 0.3zm0-0.7c-0.2 0.1-0.2 0.1-0.2 0.2s0.1 0.2 0.2 0.2 0.2-0.1 0.2-0.1v-0.2c-0.1 0-0.1-0.1-0.2-0.1z" style="fill: rgb(255, 201, 43);"/>
  <rect id="dg2" class="st10" transform="matrix(.7071 .7071 -.7071 .7071 66.791 19.251)" x="9.1" y="89.2" width="2" height="2" style="fill: rgb(189, 229, 237);"/>
  <rect id="dg2" class="st10" transform="matrix(.7071 .7071 -.7071 .7071 70.68 20.862)" x="9.1" y="94.7" width="2" height="2" style="fill: rgb(189, 229, 237);"/>
  <path id="dg2" class="st6" d="m25.2 106.7h-15.5c-0.3 0-0.5-0.2-0.5-0.5s0.2-0.5 0.5-0.5h15.5c0.3 0 0.5 0.2 0.5 0.5s-0.2 0.5-0.5 0.5z" style="fill: rgb(255, 255, 255);"/>
  <path id="dg3" class="st2" d="m81.4 89h-27.3c-0.8 0-1.4-0.6-1.4-1.4v-38.7c0-0.8 0.6-1.4 1.4-1.4h27.4c0.8 0 1.4 0.6 1.4 1.4v38.6c0 0.9-0.7 1.5-1.5 1.5z" style="fill: rgb(152, 191, 218);"/>
  <rect id="dg3" class="st3" x="52.6" y="53.2" width="30.2" height="32.2" style="fill: rgb(229, 229, 229);"/>
  <rect id="dg3" class="st4" x="52.6" y="79.2" width="30.2" height="6.2" style="fill: rgb(198, 197, 197);"/>
  <rect id="dg3" class="st5" x="54" y="49" width="4.5" height="2.8" style="fill: rgb(70, 83, 164);"/>
  <line id="dg3" class="st6" x1="61.2" x2="79" y1="50.4" y2="50.4" style="fill: rgb(255, 255, 255);"/>
  <path id="dg3" d="m79 51.4h-17.8c-0.6 0-1-0.4-1-1s0.4-1 1-1h17.8c0.6 0 1 0.4 1 1s-0.4 1-1 1z"/>
  <line id="dg3" class="st6" x1="61.1" x2="71.9" y1="61" y2="61" style="fill: rgb(255, 255, 255);"/>
  <path id="dg3" d="m71.9 61.5h-10.8c-0.3 0-0.5-0.2-0.5-0.5s0.2-0.5 0.5-0.5h10.9c0.3 0 0.5 0.2 0.5 0.5s-0.3 0.5-0.6 0.5z"/>
  <line id="dg3" class="st6" x1="61.3" x2="76.8" y1="66.8" y2="66.8" style="fill: rgb(255, 255, 255);"/>
  <path id="dg3" d="m76.8 67.2h-15.5c-0.3 0-0.5-0.2-0.5-0.5s0.2-0.5 0.5-0.5h15.5c0.3 0 0.5 0.2 0.5 0.5s-0.2 0.5-0.5 0.5z"/>
  <line id="dg3" class="st6" x1="61.3" x2="76.8" y1="72.2" y2="72.2" style="fill: rgb(255, 255, 255);"/>
  <path id="dg3" d="m76.8 72.8h-15.5c-0.3 0-0.5-0.2-0.5-0.5s0.2-0.5 0.5-0.5h15.5c0.3 0 0.5 0.2 0.5 0.5s-0.2 0.5-0.5 0.5z"/>
  <path id="dg3" class="st7" d="m56.4 63.1v-2.5l-0.1 0.3 0.1 2.2z" style="fill: rgb(189, 152, 46);"/>
  <path id="dg3" class="st8" d="m57.2 59.8c0-0.2-0.1-0.5-0.3-0.7-0.3-0.3-0.8-0.4-1.2-0.2-0.3 0.2-0.5 0.6-0.5 0.9s0.3 0.6 0.6 0.7v0.5h0.4v0.5h-0.2l0.2 0.2v0.1l-0.2 0.3v0.1l0.2 0.2v0.1l-0.1 0.1v0.2l0.3 0.3c0.1 0 0.1-0.1 0.2-0.2v-1.9s0-0.1 0.1-0.1h0.2l-0.2-0.2v-0.2c0.2-0.1 0.4-0.3 0.5-0.5v-0.2zm-1.2-0.4c0-0.1 0.1-0.2 0.2-0.3s0.3 0 0.4 0.1 0.1 0.2 0.1 0.3-0.2 0.2-0.3 0.2c-0.3 0-0.4-0.1-0.4-0.3z" style="fill: rgb(254, 221, 39);"/>
  <path id="dg3" class="st9" d="m56.4 63.3l-0.4-0.4v-0.3l0.1-0.2-0.2-0.2v-0.2l0.2-0.2-0.3-0.3 0.2-0.2v-0.2h-0.5l0.2-0.4c-0.3-0.2-0.6-0.5-0.6-0.8-0.1-0.4 0.2-0.9 0.6-1 0.4-0.2 1-0.1 1.3 0.2 0.2 0.2 0.3 0.5 0.3 0.7 0 0.1 0 0.2-0.1 0.4s-0.3 0.4-0.5 0.6l0.3 0.4h-0.4v1.9l-0.2 0.2zm-0.2-0.5l0.2 0.2v-1.9c0-0.1 0.1-0.2 0.2-0.2 0 0-0.1-0.1 0-0.2 0-0.1 0.1-0.1 0.1-0.1 0.2-0.1 0.4-0.3 0.4-0.4s0.1-0.2 0.1-0.3c0-0.2-0.1-0.4-0.2-0.6-0.3-0.3-0.7-0.3-1.1-0.1-0.3 0.1-0.5 0.5-0.4 0.8 0 0.3 0.2 0.5 0.5 0.6 0.1 0 0.1 0.1 0.1 0.1v0.3h0.1c0.1 0 0.1 0 0.2 0.1l0.1 0.1v0.3c0 0.1 0 0.1-0.1 0.1l0.1 0.1c0.1 0.1 0.1 0.2 0 0.3l-0.2 0.2 0.2 0.2c0.1 0.1 0.1 0.2 0 0.3l-0.3 0.1zm0.1-2.9c-0.2 0-0.4-0.2-0.4-0.4v-0.1c0-0.2 0.1-0.3 0.2-0.4 0.2-0.1 0.4-0.1 0.5 0.1 0.1 0.1 0.2 0.3 0.1 0.5-0.1 0.1-0.2 0.3-0.4 0.3zm0-0.7c-0.1 0-0.1 0 0 0-0.2 0.1-0.2 0.1-0.2 0.2s0.1 0.2 0.2 0.2 0.2-0.1 0.2-0.1v-0.2c-0.1 0-0.2-0.1-0.2-0.1z" style="fill: rgb(255, 201, 43);"/>
  <rect id="dg3" class="st10" transform="matrix(.7071 .7071 -.7071 .7071 63.721 -20.336)" x="55.4" y="65.7" width="2" height="2" style="fill: rgb(189, 229, 237);"/>
  <rect id="dg3" class="st10" transform="matrix(.7071 .7071 -.7071 .7071 67.61 -18.724)" x="55.4" y="71.2" width="2" height="2" style="fill: rgb(189, 229, 237);"/>
  <path id="dg3" class="st6" d="m71.5 83.2h-15.5c-0.3 0-0.5-0.2-0.5-0.5s0.2-0.5 0.5-0.5h15.5c0.3 0 0.5 0.2 0.5 0.5s-0.2 0.5-0.5 0.5z" style="fill: rgb(255, 255, 255);"/>
  <path id="dg4" class="st2" d="m118.2 45.4h-27.4c-0.8 0-1.4-0.6-1.4-1.4v-38.6c0-0.8 0.6-1.4 1.4-1.4h27.4c0.8 0 1.4 0.6 1.4 1.4v38.6c0 0.8-0.6 1.4-1.4 1.4z" style="fill: rgb(152, 191, 218);"/>
  <rect id="dg4" class="st3" x="89.4" y="9.7" width="30.2" height="32.2" style="fill: rgb(229, 229, 229);"/>
  <rect id="dg4" class="st4" x="89.4" y="35.7" width="30.2" height="6.2" style="fill: rgb(198, 197, 197);"/>
  <rect id="dg4" class="st5" x="90.8" y="5.4" width="4.5" height="2.8" style="fill: rgb(70, 83, 164);"/>
  <line id="dg4" class="st6" x1="98" x2="115.8" y1="6.8" y2="6.8" style="fill: rgb(255, 255, 255);"/>
  <path id="dg4" d="m115.8 7.8h-17.8c-0.6 0-1-0.4-1-1s0.4-1 1-1h17.8c0.6 0 1 0.4 1 1s-0.5 1-1 1z"/>
  <line id="dg4" class="st6" x1="97.8" x2="108.7" y1="17.4" y2="17.4" style="fill: rgb(255, 255, 255);"/>
  <path id="dg4" d="m108.7 17.9h-10.9c-0.3 0-0.5-0.2-0.5-0.5s0.2-0.5 0.5-0.5h10.9c0.3 0 0.5 0.2 0.5 0.5s-0.2 0.5-0.5 0.5z"/>
  <line id="dg4" class="st6" x1="98" x2="113.5" y1="23.2" y2="23.2" style="fill: rgb(255, 255, 255);"/>
  <path id="dg4" d="m113.5 23.7h-15.5c-0.3 0-0.5-0.2-0.5-0.5s0.2-0.5 0.5-0.5h15.5c0.3 0 0.5 0.2 0.5 0.5s-0.2 0.5-0.5 0.5z"/>
  <line id="dg4" class="st6" x1="98" x2="113.5" y1="28.7" y2="28.7" style="fill: rgb(255, 255, 255);"/>
  <path id="dg4" d="m113.5 29.2h-15.5c-0.3 0-0.5-0.2-0.5-0.5s0.2-0.5 0.5-0.5h15.5c0.3 0 0.5 0.2 0.5 0.5s-0.2 0.5-0.5 0.5z"/>
  <path id="dg4" class="st7" d="m93.1 19.6v-2.5l-0.1 0.3 0.1 2.2z" style="fill: rgb(189, 152, 46);"/>
  <path id="dg4" class="st8" d="m94 16.2c0-0.2-0.1-0.5-0.3-0.7-0.3-0.3-0.8-0.4-1.2-0.2-0.3 0.3-0.5 0.7-0.5 1s0.3 0.6 0.6 0.7v0.2l-0.1 0.2h0.4v0.5l-0.2 0.1 0.2 0.2v0.1l-0.2 0.2v0.1l0.2 0.2v0.1l-0.1 0.1v0.2l0.3 0.3c0.1 0 0.1-0.1 0.2-0.2v-1.9s0-0.1 0.1-0.1h0.2l-0.2-0.2v-0.2c0.2-0.1 0.4-0.3 0.5-0.5 0.1 0 0.1-0.1 0.1-0.2zm-1.3-0.3c0-0.1 0.1-0.2 0.2-0.3s0.3 0 0.4 0.1 0.1 0.2 0.1 0.3-0.2 0.2-0.3 0.2c-0.2 0-0.4-0.1-0.4-0.3z" style="fill: rgb(254, 221, 39);"/>
  <path id="dg4" class="st9" d="m93.1 19.8l-0.4-0.4v-0.3l0.1-0.2-0.2-0.2v-0.2l0.2-0.2-0.3-0.3 0.2-0.2v-0.2h-0.5l0.2-0.4c-0.3-0.1-0.6-0.5-0.6-0.8-0.1-0.4 0.2-0.9 0.6-1 0.4-0.2 1-0.1 1.3 0.2 0.2 0.2 0.3 0.5 0.3 0.7 0 0.1 0 0.2-0.1 0.4s-0.3 0.4-0.5 0.6l0.3 0.4h-0.4v1.9l-0.2 0.2zm-0.2-0.6l0.2 0.2v-1.9c0-0.1 0.1-0.2 0.2-0.2 0 0-0.1-0.1 0-0.2 0-0.1 0.1-0.1 0.1-0.1 0.2-0.1 0.4-0.3 0.4-0.4s0.1-0.2 0.1-0.3c0-0.2-0.1-0.4-0.2-0.6-0.3-0.3-0.7-0.3-1.1-0.1-0.3 0.1-0.5 0.5-0.4 0.8 0 0.3 0.2 0.5 0.5 0.6 0.1 0 0.1 0.1 0.1 0.1v0.3h0.1c0.1 0 0.1 0 0.2 0.1l0.1 0.1v0.3c0 0.1 0 0.1-0.1 0.1l0.1 0.1c0.1 0.1 0.1 0.2 0 0.3l-0.2 0.2 0.2 0.2c0.1 0.1 0.1 0.2 0 0.3l-0.3 0.1zm0.1-2.9c-0.2 0-0.4-0.2-0.4-0.4v-0.1c0-0.2 0.1-0.3 0.2-0.4 0.2-0.1 0.4-0.1 0.5 0.1 0.1 0.1 0.2 0.3 0.1 0.5 0 0.2-0.2 0.3-0.4 0.3zm0-0.6c-0.2 0.1-0.2 0.1-0.2 0.2s0.1 0.2 0.2 0.2 0.2-0.1 0.2-0.1v-0.2c-0.1-0.1-0.1-0.1-0.2-0.1z" style="fill: rgb(255, 201, 43);"/>
  <rect id="dg4" class="st10" transform="matrix(.7071 .7071 -.7071 .7071 43.686 -59.079)" x="92.1" y="22.2" width="2" height="2" style="fill: rgb(189, 229, 237);"/>
  <rect id="dg4" class="st10" transform="matrix(.7071 .7071 -.7071 .7071 47.575 -57.468)" x="92.1" y="27.7" width="2" height="2" style="fill: rgb(189, 229, 237);"/>
  <path id="dg4" class="st6" d="m108.2 39.7h-15.5c-0.3 0-0.5-0.2-0.5-0.5s0.2-0.5 0.5-0.5h15.5c0.3 0 0.5 0.2 0.5 0.5s-0.2 0.5-0.5 0.5z" style="fill: rgb(255, 255, 255);"/>
  <path id="dg5" class="st2" d="m118.2 133.2h-27.4c-0.8 0-1.4-0.6-1.4-1.4v-38.6c0-0.8 0.6-1.4 1.4-1.4h27.4c0.8 0 1.4 0.6 1.4 1.4v38.6c0 0.8-0.6 1.4-1.4 1.4z" style="fill: rgb(152, 191, 218);"/>
  <rect id="dg5" class="st3" x="89.4" y="97.5" width="30.2" height="32.2" style="fill: rgb(229, 229, 229);"/>
  <rect id="dg5" class="st4" x="89.4" y="123.5" width="30.2" height="6.2" style="fill: rgb(198, 197, 197);"/>
  <rect id="dg5" class="st5" x="90.8" y="93.2" width="4.5" height="2.8" style="fill: rgb(70, 83, 164);"/>
  <line id="dg5" class="st6" x1="98" x2="115.8" y1="94.6" y2="94.6" style="fill: rgb(255, 255, 255);"/>
  <path id="dg5" d="m115.8 95.6h-17.8c-0.6 0-1-0.4-1-1s0.4-1 1-1h17.8c0.6 0 1 0.4 1 1s-0.5 1-1 1z"/>
  <line id="dg5" class="st6" x1="97.8" x2="108.7" y1="105.2" y2="105.2" style="fill: rgb(255, 255, 255);"/>
  <path id="dg5" d="m108.7 105.8h-10.9c-0.3 0-0.5-0.2-0.5-0.5s0.2-0.5 0.5-0.5h10.9c0.3 0 0.5 0.2 0.5 0.5s-0.2 0.5-0.5 0.5z"/>
  <line id="dg5" class="st6" x1="98" x2="113.5" y1="111" y2="111" style="fill: rgb(255, 255, 255);"/>
  <path id="dg5" d="m113.5 111.5h-15.5c-0.3 0-0.5-0.2-0.5-0.5s0.2-0.5 0.5-0.5h15.5c0.3 0 0.5 0.2 0.5 0.5s-0.2 0.5-0.5 0.5z"/>
  <line id="dg5" class="st6" x1="98" x2="113.5" y1="116.5" y2="116.5" style="fill: rgb(255, 255, 255);"/>
  <path id="dg5" d="m113.5 117h-15.5c-0.3 0-0.5-0.2-0.5-0.5s0.2-0.5 0.5-0.5h15.5c0.3 0 0.5 0.2 0.5 0.5s-0.2 0.5-0.5 0.5z"/>
  <path id="dg5" class="st7" d="m93.1 107.4v-2.5l-0.1 0.3 0.1 2.2z" style="fill: rgb(189, 152, 46);"/>
  <path id="dg5" class="st8" d="m94 104c0-0.2-0.1-0.5-0.3-0.7-0.3-0.3-0.8-0.4-1.2-0.2-0.3 0.2-0.5 0.6-0.5 0.9s0.3 0.6 0.6 0.7v0.2l-0.1 0.2h0.4v0.5l-0.1 0.1 0.2 0.2v0.1l-0.2 0.2v0.1l0.2 0.2v0.1l-0.1 0.1v0.2l0.3 0.3c0.1 0 0.1-0.1 0.2-0.2v-1.9s0-0.1 0.1-0.1h0.2l-0.2-0.2v-0.2c0.2-0.1 0.4-0.3 0.5-0.5v-0.1zm-1.3-0.3c0-0.1 0.1-0.2 0.2-0.3s0.3 0 0.4 0.1 0.1 0.2 0.1 0.3-0.2 0.2-0.3 0.2c-0.2 0-0.4-0.1-0.4-0.3z" style="fill: rgb(254, 221, 39);"/>
  <path id="dg5" class="st9" d="m93.1 107.6l-0.4-0.4v-0.3l0.1-0.2-0.2-0.2v-0.2l0.2-0.2-0.3-0.3 0.2-0.2v-0.2h-0.5l0.2-0.4c-0.3-0.2-0.6-0.5-0.6-0.8-0.1-0.4 0.2-0.9 0.6-1 0.4-0.2 1-0.1 1.3 0.2 0.2 0.2 0.3 0.5 0.3 0.7 0 0.1 0 0.2-0.1 0.4s-0.3 0.4-0.5 0.6l0.3 0.4h-0.4v1.9s0 0.1-0.2 0.2zm-0.2-0.6l0.2 0.2v-1.9c0-0.1 0.1-0.2 0.2-0.2 0 0-0.1-0.1 0-0.2 0-0.1 0.1-0.1 0.1-0.1 0.2-0.1 0.4-0.3 0.4-0.4s0.1-0.2 0.1-0.3c0-0.2-0.1-0.4-0.2-0.6-0.3-0.3-0.7-0.3-1.1-0.1-0.3 0.1-0.5 0.5-0.4 0.8 0 0.3 0.2 0.5 0.5 0.6 0.1 0 0.1 0.1 0.1 0.1v0.3h0.1s0.1 0 0.2 0.1l0.1 0.1v0.3c0 0.1 0 0.1-0.1 0.1l0.1 0.1c0.1 0.1 0.1 0.2 0 0.3l-0.2 0.2 0.2 0.2c0.1 0.1 0.1 0.2 0 0.3l-0.3 0.1zm0.1-2.9c-0.2 0-0.4-0.2-0.4-0.4v-0.1c0-0.2 0.1-0.3 0.2-0.4 0.2-0.1 0.4-0.1 0.5 0.1 0.1 0.1 0.2 0.3 0.1 0.5 0 0.2-0.2 0.3-0.4 0.3zm0-0.6c-0.2 0.1-0.2 0.1-0.2 0.2s0.1 0.2 0.2 0.2 0.2-0.1 0.2-0.1v-0.2c-0.1-0.1-0.1-0.1-0.2-0.1z" style="fill: rgb(255, 201, 43);"/>
  <rect id="dg5" class="st10" transform="matrix(.7071 .7071 -.7071 .7071 105.77 -33.361)" x="92.1" y="110" width="2" height="2" style="fill: rgb(189, 229, 237);"/>
  <rect id="dg5" class="st10" transform="matrix(.7071 .7071 -.7071 .7071 109.66 -31.75)" x="92.1" y="115.5" width="2" height="2" style="fill: rgb(189, 229, 237);"/>
  <path id="dg5" class="st6" d="m108.2 127.5h-15.5c-0.3 0-0.5-0.2-0.5-0.5s0.2-0.5 0.5-0.5h15.5c0.3 0 0.5 0.2 0.5 0.5s-0.2 0.5-0.5 0.5z" style="fill: rgb(255, 255, 255);"/>
  <path id="dg6" class="st2" d="m152.9 89h-27.4c-0.8 0-1.4-0.6-1.4-1.4v-38.7c0-0.8 0.6-1.4 1.4-1.4h27.4c0.8 0 1.4 0.6 1.4 1.4v38.6c0 0.9-0.6 1.5-1.4 1.5z" style="fill: rgb(152, 191, 218);"/>
  <rect id="dg6" class="st3" x="124.1" y="53.2" width="30.2" height="32.2" style="fill: rgb(229, 229, 229);"/>
  <rect id="dg6" class="st4" x="124.1" y="79.2" width="30.2" height="6.2" style="fill: rgb(198, 197, 197);"/>
  <rect id="dg6" class="st5" x="125.4" y="49" width="4.5" height="2.8" style="fill: rgb(70, 83, 164);"/>
  <line id="dg6" class="st6" x1="132.7" x2="150.4" y1="50.4" y2="50.4" style="fill: rgb(255, 255, 255);"/>
  <path id="dg6" d="m150.4 51.4h-17.8c-0.6 0-1-0.4-1-1s0.4-1 1-1h17.8c0.6 0 1 0.4 1 1s-0.4 1-1 1z"/>
  <line id="dg6" class="st6" x1="132.5" x2="143.4" y1="61" y2="61" style="fill: rgb(255, 255, 255);"/>
  <path id="dg6" d="m143.4 61.5h-10.9c-0.3 0-0.5-0.2-0.5-0.5s0.2-0.5 0.5-0.5h10.9c0.3 0 0.5 0.2 0.5 0.5s-0.2 0.5-0.5 0.5z"/>
  <line id="dg6" class="st6" x1="132.7" x2="148.2" y1="66.8" y2="66.8" style="fill: rgb(255, 255, 255);"/>
  <path id="dg6" d="m148.2 67.2h-15.5c-0.3 0-0.5-0.2-0.5-0.5s0.2-0.5 0.5-0.5h15.5c0.3 0 0.5 0.2 0.5 0.5s-0.2 0.5-0.5 0.5z"/>
  <line id="dg6" class="st6" x1="132.7" x2="148.2" y1="72.2" y2="72.2" style="fill: rgb(255, 255, 255);"/>
  <path id="dg6" d="m148.2 72.8h-15.5c-0.3 0-0.5-0.2-0.5-0.5s0.2-0.5 0.5-0.5h15.5c0.3 0 0.5 0.2 0.5 0.5s-0.2 0.5-0.5 0.5z"/>
  <path id="dg6" class="st7" d="m127.8 63.1v-2.5l-0.1 0.3 0.1 2.2z" style="fill: rgb(189, 152, 46);"/>
  <path id="dg6" class="st8" d="m128.7 59.8c0-0.2-0.1-0.5-0.3-0.7-0.3-0.3-0.8-0.4-1.2-0.2-0.3 0.2-0.5 0.6-0.5 0.9s0.3 0.6 0.6 0.7v0.2l-0.1 0.2h0.4v0.5l-0.1 0.1 0.2 0.2v0.1l-0.2 0.2v0.1l0.2 0.2v0.1l-0.1 0.1v0.2l0.3 0.3c0.1 0 0.1-0.1 0.2-0.2v-1.9s0-0.1 0.1-0.1h0.2l-0.2-0.2v-0.2c0.2-0.1 0.4-0.3 0.5-0.5v-0.1zm-1.3-0.4c0-0.1 0.1-0.2 0.2-0.3s0.3 0 0.4 0.1 0.1 0.2 0.1 0.3-0.2 0.2-0.3 0.2c-0.2 0-0.4-0.1-0.4-0.3z" style="fill: rgb(254, 221, 39);"/>
  <path id="dg6" class="st9" d="m127.8 63.3l-0.4-0.4v-0.3l0.1-0.2-0.2-0.2v-0.2l0.2-0.2-0.3-0.3 0.2-0.2v-0.2h-0.5l0.2-0.4c-0.3-0.2-0.6-0.5-0.6-0.8-0.1-0.4 0.2-0.9 0.6-1 0.4-0.2 1-0.1 1.3 0.2 0.2 0.2 0.3 0.5 0.3 0.7 0 0.1 0 0.2-0.1 0.4s-0.3 0.4-0.5 0.6l0.3 0.4h-0.4v1.9s0 0.1-0.2 0.2zm-0.2-0.5l0.2 0.2v-1.9c0-0.1 0.1-0.2 0.2-0.2 0 0-0.1-0.1 0-0.2 0-0.1 0.1-0.1 0.1-0.1 0.2-0.1 0.4-0.3 0.4-0.4s0.1-0.2 0.1-0.3c0-0.2-0.1-0.4-0.2-0.6-0.3-0.3-0.7-0.3-1.1-0.1-0.3 0.1-0.5 0.5-0.4 0.8 0 0.3 0.2 0.5 0.5 0.6 0.1 0 0.1 0.1 0.1 0.1v0.3h0.1c0.1 0 0.1 0 0.2 0.1l0.1 0.1v0.3c0 0.1 0 0.1-0.1 0.1l0.1 0.1c0.1 0.1 0.1 0.2 0 0.3l-0.2 0.2 0.2 0.2c0.1 0.1 0.1 0.2 0 0.3l-0.3 0.1zm0.1-2.9c-0.2 0-0.4-0.2-0.4-0.4v-0.1c0-0.2 0.1-0.3 0.2-0.4 0.2-0.1 0.4-0.1 0.5 0.1 0.1 0.1 0.2 0.3 0.1 0.5 0 0.1-0.2 0.3-0.4 0.3zm0-0.7c-0.2 0.1-0.2 0.1-0.2 0.2s0.1 0.2 0.2 0.2 0.2-0.1 0.2-0.1v-0.2c-0.1 0-0.1-0.1-0.2-0.1z" style="fill: rgb(255, 201, 43);"/>
  <rect id="dg6" class="st10" transform="matrix(.7071 .7071 -.7071 .7071 84.644 -70.849)" x="126.8" y="65.7" width="2" height="2" style="fill: rgb(189, 229, 237);"/>
  <rect id="dg6" class="st10" transform="matrix(.7071 .7071 -.7071 .7071 88.533 -69.238)" x="126.8" y="71.2" width="2" height="2" style="fill: rgb(189, 229, 237);"/>
  <path id="dg6" class="st6" d="m142.9 83.2h-15.5c-0.3 0-0.5-0.2-0.5-0.5s0.2-0.5 0.5-0.5h15.5c0.3 0 0.5 0.2 0.5 0.5s-0.2 0.5-0.5 0.5z" style="fill: rgb(255, 255, 255);"/>
  <polygon id="dg9" class="st11" points="32 104.7 32 107.8 34.9 106.2" style="fill: rgb(103, 103, 103);"/>
  <polygon id="dg9" points="67.2 47.5 66.2 47.5 66.2 24.7 89.7 24.7 89.7 25.7 67.2 25.7"/>
  <polygon id="dg9" points="89.7 120.5 66.1 120.5 66.1 89 67.1 89 67.1 119.5 89.7 119.5"/>
  <polygon id="dg9" points="141.2 47.5 140.2 47.5 140.2 25.9 119.6 25.9 119.6 24.9 141.2 24.9"/>
  <polygon id="dg9" points="52.6 67.2 43.2 67.2 43.2 41.8 36.6 41.8 36.6 40.8 44.2 40.8 44.2 66.2 52.6 66.2"/>
  <polygon id="dg9" points="45.1 92.4 36.6 92.4 36.6 91.4 44.1 91.4 44.1 83.6 52.6 83.6 52.6 84.6 45.1 84.6"/>
  <polygon id="dg9" class="st11" points="77.5 80.8 77.5 83.9 80.5 82.4" style="fill: rgb(103, 103, 103);"/>
  <polygon id="dg9" class="st11" points="114.3 125.4 114.3 128.5 117.2 127" style="fill: rgb(103, 103, 103);"/>
  <polygon id="dg9" class="st11" points="147.3 81.2 147.3 84.3 150.2 82.7" style="fill: rgb(103, 103, 103);"/>
  <polygon id="dg9" class="st11" points="112.8 37.6 112.8 40.7 115.8 39.2" style="fill: rgb(103, 103, 103);"/>
  <polygon id="dg9" points="119.7 27.6 119.7 26.5 121.4 25.5 119.7 24.6 119.7 23.4 123.4 25.6"/>
  <polygon id="dg9" points="36.6 43.4 36.6 42.3 38.3 41.3 36.6 40.3 36.6 39.1 40.3 41.4"/>
  <polygon id="dg9" points="36.6 94 36.6 92.9 38.3 92 36.6 91 36.6 89.8 40.3 92"/>
  <polygon id="dg9" points="119.7 122.3 119.7 121.3 121.4 120.3 119.7 119.3 119.7 118.1 123.4 120.4"/>
  <polygon id="dg9" points="89.7 118.1 89.6 119.2 88 120.2 89.7 121.1 89.7 122.3 86 120.1"/>
  <polygon id="dg9" points="89.7 23.4 89.6 24.4 88 25.4 89.7 26.4 89.7 27.6 86 25.3"/>
  <rect id="dg9" x="122.9" y="23.5" width="1" height="3.9"/>
  <rect id="dg9" x="138.8" y="45.5" width="3.9" height="1"/>
  <rect id="dg9" x="138.8" y="92.8" width="3.9" height="1"/>
  <rect id="dg9" x="138.8" y="91.4" width="3.9" height="1"/>
  <rect id="dg9" x="64.6" y="92.8" width="3.9" height="1"/>
  <rect id="dg9" x="64.6" y="91.4" width="3.9" height="1"/>
  <rect id="dg9" x="64.6" y="45.4" width="3.9" height="1"/>
  <rect id="dg9" x="64.6" y="44.1" width="3.9" height="1"/>
  <rect id="dg9" x="48.9" y="64.8" width="1" height="3.9"/>
  <rect id="dg9" x="50.2" y="64.8" width="1" height="3.9"/>
  <rect id="dg9" x="48.9" y="82.2" width="1" height="3.9"/>
  <rect id="dg9" x="50.2" y="82.2" width="1" height="3.9"/>
  <rect id="dg9" x="138.8" y="44.4" width="3.9" height="1"/>
  <rect id="dg9" x="39.8" y="39.2" width="1" height="4.6"/>
  <rect id="dg9" x="85.5" y="23.1" width="1" height="4.6"/>
  <rect id="dg9" x="122.9" y="117.5" width="1" height="3.9"/>
  <rect id="dg9" x="85.5" y="117.8" width="1" height="4.6"/>
  <rect id="dg9" x="39.8" y="89.6" width="1" height="4.6"/>
</g>
	</g>
        <g id="appunti">

			<rect x="897.2" y="122.7" transform="matrix(0.1011 -0.9949 0.9949 0.1011 645.3823 1215.8701)" fill="#39B54A"
                  width="196.7" height="256.2"/>

            <rect x="902.1" y="118.8" transform="matrix(0.1011 -0.9949 0.9949 0.1011 653.6492 1217.207)" fill="#E6E9ED"
                  width="196.7" height="256.2"/>

            <rect x="908.6" y="118.7" transform="matrix(-3.460012e-02 -0.9994 0.9994 -3.460012e-02 795.0997 1261.6832)"
                  fill="#F5F7FA" width="196.7" height="256.2"/>
            <g id="ag1">
			<path id="a1" fill="#44C650" d="M1091.6,276.3l-108.7,4.2l-3.6-91.1l108.7-4.2L1091.6,276.3z M987.1,276l100-3.9l-3.2-82.4
				l-100,3.9L987.1,276z"/>

                <rect id="a2" x="982.2" y="204.5"
                      transform="matrix(-0.9992 3.890502e-02 -3.890502e-02 -0.9992 2076.106 372.9764)" fill="#44C650"
                      width="104.4" height="4.3"/>
		</g>
            <g id="ag2">
			<path id="a3" fill="#44C650" d="M1021.8,270.3l-21.7,0.8l-0.9-21.7l21.7-0.8L1021.8,270.3z M1004.3,266.7l13-0.5l-0.5-13l-13,0.5
				L1004.3,266.7z"/>
                <path id="a4" fill="#44C650" d="M1047.7,269.3l-21.7,0.9l-0.8-21.7l21.7-0.8L1047.7,269.3z M1030.2,265.6l13-0.5l-0.5-13l-13,0.5
				L1030.2,265.6z"/>
                <path id="a5" fill="#44C650" d="M1073.8,268.3l-21.7,0.8l-0.8-21.7l21.7-0.8L1073.8,268.3z M1056.3,264.6l13-0.5l-0.5-13l-13,0.5
				L1056.3,264.6z"/>
		</g>
            <g id="ag3">
			<path id="a6" fill="#44C650" d="M1038.2,243.6l-39.1,1.5l-1.2-30.4l39.1-1.5L1038.2,243.6z M1003.3,240.6l30.4-1.2l-0.8-21.7
				l-30.4,1.2L1003.3,240.6z"/>

                <rect id="a7" x="1043.3" y="212.4"
                      transform="matrix(-0.9992 3.900458e-02 -3.900458e-02 -0.9992 2120.3303 387.8162)" fill="#44C650"
                      width="26.1" height="4.3"/>

                <rect id="a8" x="1043.8" y="221.1"
                      transform="matrix(-0.9992 3.890502e-02 -3.890502e-02 -0.9992 2121.6379 405.2888)" fill="#44C650"
                      width="26.1" height="4.3"/>

                <rect id="a9" x="1044.1" y="229.9"
                      transform="matrix(-0.9992 3.890502e-02 -3.890502e-02 -0.9992 2113.8811 423.0434)" fill="#44C650"
                      width="17.4" height="4.3"/>
		</g>
            <g id="ag4">

				<rect id="a10" x="1055.1" y="290"
                      transform="matrix(-0.9992 3.900458e-02 -3.900458e-02 -0.9992 2155.6362 542.3217)" fill="#44C650"
                      width="34.8" height="4.3"/>

                <rect id="a11" x="1055.4" y="298.7"
                      transform="matrix(-0.9992 3.890502e-02 -3.890502e-02 -0.9992 2156.6418 559.8035)" fill="#44C650"
                      width="34.9" height="4.3"/>

                <rect id="a18" x="1072.1" y="281.1"
                      transform="matrix(-0.9992 3.900458e-02 -3.900458e-02 -0.9992 2171.8855 524.2064)" fill="#44C650"
                      width="17.4" height="4.3"/>
		</g>
            <g id="ag5">

				<rect id="a12" x="967.2" y="258.4"
                      transform="matrix(-0.9992 3.900458e-02 -3.900458e-02 -0.9992 1987.2742 482.4036)" fill="#44C650"
                      width="43.4" height="4.3"/>

                <rect id="a13" x="949.6" y="259.9"
                      transform="matrix(-0.9993 3.869431e-02 -3.869431e-02 -0.9993 1917.4197 486.9216)" fill="#44C650"
                      width="8.7" height="4.3"/>

                <rect id="a14" x="964.7" y="197.9"
                      transform="matrix(-0.9992 3.900458e-02 -3.900458e-02 -0.9992 1979.9198 361.5571)" fill="#44C650"
                      width="43.4" height="4.3"/>

                <rect id="a15" x="947.4" y="199.4"
                      transform="matrix(-0.9993 3.859477e-02 -3.859477e-02 -0.9993 1910.657 366.1379)" fill="#44C650"
                      width="8.7" height="4.3"/>

                <rect id="a16" x="948" y="216.5"
                      transform="matrix(-0.9992 3.880546e-02 -3.880546e-02 -0.9992 1912.5157 400.2531)" fill="#44C650"
                      width="8.7" height="4.3"/>
                <polygon id="a17" fill="#44C650"
                         points="1017.4,231.2 982.5,219.7 965.5,220.4 965.4,216 983.1,215.3 1018.7,227.1 			"/>
		</g>
	</g>
        <g id="appunti2">

			<rect x="1683.8" y="-5" transform="matrix(-0.9548 0.2971 -0.2971 -0.9548 3433.354 -346.616)" fill="#363532"
                  width="118.5" height="185.2"/>
            <circle fill="#363532" cx="1776.4" cy="-4.3" r="14.8"/>
            <circle fill="#363532" cx="1822.7" cy="144.3" r="14.8"/>

            <rect x="1799.3" y="-10.1" transform="matrix(0.9548 -0.2972 0.2972 0.9548 61.5143 540.025)" fill="#363532"
                  width="14.8" height="155.6"/>
            <circle fill="#363532" cx="1711.7" cy="186.6" r="7.4"/>
            <circle fill="#363532" cx="1661" cy="23.9" r="7.4"/>

            <rect x="1678.8" y="19.3" transform="matrix(-0.9548 0.2972 -0.2972 -0.9548 3332.7676 -297.6945)"
                  fill="#363532" width="20.4" height="170.4"/>

            <rect x="1683.1" y="-6.8" transform="matrix(-0.9548 0.2971 -0.2971 -0.9548 3431.4954 -349.8928)"
                  fill="#FFFFFF" width="118.5" height="185.2"/>
            <circle fill="#FFFFFF" cx="1775.9" cy="-6" r="14.8"/>
            <circle fill="#FFFFFF" cx="1822.1" cy="142.5" r="14.8"/>

            <rect x="1798.7" y="-11.7" transform="matrix(0.9548 -0.2972 0.2972 0.9548 61.961 539.7559)" fill="#FFFFFF"
                  width="14.8" height="155.6"/>
            <circle fill="#FFFFFF" cx="1711.7" cy="186.6" r="5.6"/>
            <circle fill="#FFFFFF" cx="1660.5" cy="22.1" r="7.4"/>

            <rect x="1680.4" y="17.2" transform="matrix(-0.9548 0.2971 -0.2971 -0.9548 3333.6741 -300.0716)"
                  fill="#FFFFFF" width="18.5" height="172.2"/>
            <path fill="#434A54" d="M1770.9-22l-113.2,35.2c-3.9,1.2-6.1,5.4-4.9,9.3l50.6,162.7c1.2,3.9,5.4,6.1,9.3,4.9l113.2-35.2
			c7.8-2.4,12.2-10.7,9.7-18.6l-46.2-148.6C1787.1-20,1778.7-24.4,1770.9-22z"/>

            <rect x="1693.1" y="3.8" transform="matrix(-0.955 0.2967 -0.2967 -0.955 3347.1514 -305.9011)" fill="#A0D468"
                  width="7.4" height="194.5"/>

            <rect x="1704.5" y="50.3" transform="matrix(0.9542 -0.2992 0.2992 0.9542 63.9709 522.1379)" fill="#E6E9ED"
                  width="65.2" height="3.7"/>

            <rect x="1709" y="64.8" transform="matrix(0.9542 -0.2992 0.2992 0.9542 59.8407 524.1202)" fill="#E6E9ED"
                  width="65.2" height="3.7"/>

            <rect x="1713.4" y="79.4" transform="matrix(0.9542 -0.2992 0.2992 0.9542 55.6837 526.1115)" fill="#E6E9ED"
                  width="65.2" height="3.7"/>

            <rect x="1717.7" y="93.9" transform="matrix(0.9542 -0.2992 0.2992 0.9542 51.5285 528.0619)" fill="#E6E9ED"
                  width="65.2" height="3.7"/>
	</g>
        <g id="coffee">
		<circle fill="#39B54A" cx="1619" cy="-92.4" r="50.6"/>
            <circle fill="#E6E9ED" cx="1624" cy="-94.4" r="50.6"/>
            <path fill="#3498DB" d="M1624-136.1c23,0,41.7,18.7,41.7,41.7S1647-52.7,1624-52.7c-10.4,0-19.9-3.8-27.2-10.1
			c-8.9-7.6-14.5-19-14.5-31.6C1582.3-117.4,1601-136.1,1624-136.1z"/>
            <path id="linecover2" fill="#E6E9ED" d="M1624-137.1c23.6,0,42.7,19.1,42.7,42.7s-19.1,42.7-42.7,42.7c-10.6,0-20.3-3.9-27.8-10.3
			c-9.1-7.8-14.9-19.4-14.9-32.4C1581.3-118,1600.5-137.1,1624-137.1z"/>

            <ellipse transform="matrix(-0.1184 0.993 -0.993 -0.1184 1738.9366 -1668.7406)" fill="#D8D8DA" cx="1610.3"
                     cy="-62.4" rx="7.7" ry="11.6"/>
            <polygon fill="#CCD1D9" points="1560.9,-72.2 1601.7,-65.3 1601.3,-61.7 1559.9,-64.5 		"/>

            <ellipse transform="matrix(-0.1184 0.993 -0.993 -0.1184 1738.7898 -1668.6754)" fill="#AAB2BD" cx="1610.2"
                     cy="-62.4" rx="6.4" ry="9.6"/>
            <path fill="#FFFFFF" d="M1596.8-137.3l9.7,12.5c1.6,2.1,1.2,5-0.8,6.7c-2.1,1.6-5,1.2-6.7-0.8l-9.7-12.5c-1.6-2.1-1.2-5,0.8-6.7
			C1592.2-139.7,1595.1-139.3,1596.8-137.3z"/>
            <circle fill="#FFFFFF" cx="1624" cy="-94.4" r="34.8"/>
            <circle fill="#E6E7E8" cx="1624" cy="-94.4" r="31.3"/>
            <circle fill="#49433C" cx="1624" cy="-94.4" r="29.6"/>
            <path fill="#363532" d="M1602.8-77.9c9.1,11.7,26,13.8,37.7,4.7c0.7-0.5,0.8-1.5,0.3-2.2s-1.5-0.8-2.2-0.3
			c-0.3,0.2-0.6,0.4-0.9,0.6c-0.1,0.1-0.2,0.1-0.2,0.2c-0.3,0.2-0.5,0.4-0.8,0.5c-0.1,0.1-0.2,0.1-0.3,0.2c-0.2,0.1-0.4,0.2-0.6,0.3
			c-0.1,0.1-0.3,0.1-0.4,0.2c-0.2,0.1-0.5,0.2-0.7,0.4c-0.2,0.1-0.4,0.2-0.5,0.3c-0.1,0.1-0.3,0.1-0.4,0.2c-0.2,0.1-0.3,0.2-0.5,0.2
			c-0.2,0.1-0.5,0.2-0.7,0.3c-0.2,0.1-0.3,0.1-0.5,0.2c-0.2,0.1-0.3,0.1-0.5,0.2c-0.1,0-0.3,0.1-0.4,0.1c-0.3,0.1-0.6,0.2-0.9,0.2
			c-0.1,0-0.2,0.1-0.3,0.1c-0.2,0.1-0.5,0.1-0.8,0.2c-0.1,0-0.2,0-0.2,0.1c-0.3,0.1-0.7,0.1-1,0.2c0,0,0,0-0.1,0
			c-0.2,0-0.4,0.1-0.6,0.1c-0.1,0-0.3,0-0.5,0.1h-0.1c-0.7,0.1-1.5,0.1-2.2,0.1l0,0c-0.7,0-1.5,0-2.2-0.1h-0.1c-0.3,0-0.7-0.1-1-0.1
			c0,0,0,0-0.1,0c-0.3,0-0.6-0.1-0.9-0.1c-0.1,0-0.3,0-0.4-0.1c-0.2,0-0.4-0.1-0.5-0.1c-0.6-0.1-1.3-0.3-1.9-0.5l0,0
			c-3.4-1-6.6-2.8-9.2-5.2c0,0,0,0-0.1,0c-0.1-0.1-0.3-0.3-0.4-0.4c-0.1-0.1-0.2-0.2-0.4-0.4c-0.1-0.1-0.2-0.2-0.4-0.4
			c-0.2-0.2-0.4-0.4-0.6-0.7c-0.1-0.1-0.1-0.2-0.2-0.2c-0.2-0.3-0.5-0.5-0.7-0.8c-0.2-0.3-0.4-0.6-0.6-0.9c-0.1-0.1-0.1-0.2-0.2-0.3
			c-0.2-0.2-0.3-0.5-0.5-0.7c-0.1-0.1-0.2-0.3-0.3-0.4c-0.1-0.1-0.2-0.3-0.3-0.4c-0.1-0.2-0.2-0.4-0.3-0.5c0,0,0,0,0-0.1
			c-1.7-3.2-2.6-6.7-2.8-10.3l0,0c0-0.7,0-1.3,0-2c0-0.2,0-0.4,0-0.5s0-0.3,0-0.4c0-0.3,0.1-0.6,0.1-1c0,0,0,0,0-0.1
			c0-0.3,0.1-0.7,0.1-1v-0.1c0.1-0.7,0.3-1.4,0.5-2.2l0,0c0.2-0.7,0.4-1.4,0.7-2.1c0,0,0,0,0-0.1c0.1-0.1,0.1-0.3,0.2-0.4
			c0.1-0.2,0.2-0.4,0.2-0.6c0,0,0,0,0-0.1c0.1-0.3,0.3-0.6,0.4-0.9c0-0.1,0.1-0.1,0.1-0.2c0.1-0.2,0.2-0.5,0.4-0.7
			c0.1-0.1,0.1-0.2,0.2-0.3c0.1-0.3,0.3-0.5,0.5-0.8c0.1-0.1,0.2-0.3,0.3-0.4s0.2-0.3,0.3-0.4c0.1-0.1,0.2-0.3,0.3-0.4
			c0.2-0.2,0.3-0.4,0.5-0.6c0.1-0.1,0.2-0.3,0.3-0.4c0.1-0.1,0.2-0.2,0.3-0.3c0.1-0.2,0.3-0.3,0.4-0.5c0.2-0.2,0.3-0.4,0.5-0.6
			c0.1-0.1,0.2-0.2,0.3-0.3c0.2-0.2,0.3-0.3,0.5-0.5c0.1-0.1,0.1-0.2,0.2-0.2c0.2-0.2,0.5-0.5,0.7-0.7c0.1-0.1,0.1-0.1,0.2-0.2
			c0.3-0.2,0.5-0.5,0.8-0.7c0.7-0.5,0.8-1.5,0.3-2.2s-1.5-0.8-2.2-0.3C1595.8-106.5,1593.7-89.6,1602.8-77.9z"/>
            <path fill="#363532" d="M1612.8-117.1c0.3,0.8,1.3,1.2,2.1,0.8c0.2-0.1,0.4-0.2,0.6-0.3h0.1l0,0c0.2-0.1,0.4-0.1,0.6-0.2l0,0
			c0.1,0,0.1,0,0.2-0.1l0,0c0.2-0.1,0.4-0.1,0.6-0.2l0,0l0,0l0,0c0.4-0.1,0.9-0.3,1.4-0.4c0.1,0,0.1,0,0.2,0
			c0.4-0.1,0.9-0.2,1.3-0.3c0.1,0,0.2,0,0.3-0.1c-0.1,0-0.1,0-0.2,0c0.1,0,0.1,0,0.2,0l0,0c0.1,0,0.3,0,0.4-0.1l0,0
			c0.1,0,0.1,0,0.2,0l0,0h-0.1c0.1,0,0.1,0,0.2,0c0.6-0.1,1.1,0.2,1.4,0.6c0.2,0.2,0.3,0.5,0.3,0.8c0.1,0.9-0.5,1.7-1.3,1.8l0,0l0,0
			c-1.3,0.2-2.6,0.5-3.9,0.9l0,0c0,0,0,0-0.1,0l0,0c-0.4,0.1-0.8,0.3-1.2,0.5c-0.8,0.3-1.1,1.3-0.8,2.1c0.3,0.8,1.3,1.2,2.1,0.8
			c2.2-0.9,4.5-1.4,6.9-1.4c0.1,0,0.1,0,0.2,0c0.2,0,0.3,0,0.5,0c0.1,0,0.2,0,0.3,0c0.1,0,0.3,0,0.5,0c0.1,0,0.2,0,0.3,0
			s0.2,0,0.3,0l0,0c0,0,0,0,0.1,0c0.4,0.1,0.7,0.3,0.9,0.6c0.2,0.3,0.4,0.7,0.3,1.2c-0.1,0.9-0.9,1.5-1.8,1.4c-2.5-0.3-5,0-7.2,1
			h-0.1c-0.8,0.3-1.2,1.3-0.8,2.1c0.3,0.8,1.3,1.2,2.1,0.8c4.6-1.9,10-0.5,13,3.4c3.1,4,3.1,9.5,0.1,13.5c-0.5,0.7-0.4,1.7,0.3,2.2
			c0.7,0.5,1.7,0.4,2.2-0.3l0.2-0.2c1.4-1.9,2.3-4.2,2.6-6.6c0.1-0.9,0.9-1.5,1.8-1.4c0.4,0.1,0.8,0.3,1.1,0.6
			c0.2,0.3,0.3,0.7,0.3,1.1c0,0,0,0,0,0.1l0,0c0,0.1,0,0.2-0.1,0.3c0,0.1,0,0.2,0,0.3c0,0.1-0.1,0.3-0.1,0.4s0,0.2-0.1,0.3
			c0,0.2-0.1,0.3-0.1,0.5c0,0.1,0,0.1,0,0.2c-0.6,2.3-1.6,4.4-3,6.3c-0.5,0.7-0.4,1.7,0.3,2.2c0.7,0.5,1.7,0.4,2.2-0.3
			c0.3-0.4,0.5-0.7,0.8-1.1l0,0c0,0,0,0,0-0.1l0,0c0.7-1.1,1.4-2.3,1.9-3.5l0,0l0,0c0.3-0.8,1.2-1.2,2.1-0.9
			c0.3,0.1,0.5,0.3,0.6,0.5c0.3,0.4,0.4,1,0.2,1.5c0,0.1,0,0.1-0.1,0.2c-0.1,0.2-0.2,0.4-0.2,0.6c0,0.1-0.1,0.2-0.1,0.3
			c-0.1,0.2-0.2,0.4-0.3,0.6c0,0.1-0.1,0.2-0.1,0.2c-0.1,0.2-0.2,0.4-0.3,0.6c0,0.1-0.1,0.1-0.1,0.2c-0.1,0.3-0.3,0.5-0.5,0.8l0,0
			l0,0c-0.1,0.2-0.2,0.4-0.4,0.6l-0.1,0.1l0,0c-0.1,0.1-0.1,0.2-0.2,0.3c0,0.1-0.1,0.1-0.1,0.2c0,0,0,0-0.1,0.1
			c-0.1,0.2-0.3,0.4-0.4,0.6c-0.5,0.7-0.4,1.7,0.3,2.2c0.7,0.5,1.7,0.4,2.2-0.3c7.3-9.7,7.3-23.1-0.2-32.7s-20.5-13-31.6-8.3
			C1612.8-118.8,1612.4-117.9,1612.8-117.1z M1645.7-84.7c0,0.1-0.1,0.2-0.1,0.2C1645.6-84.6,1645.6-84.7,1645.7-84.7z M1645.3-83.9
			c0,0.1-0.1,0.1-0.1,0.2C1645.2-83.7,1645.2-83.8,1645.3-83.9z M1644.8-83L1644.8-83C1644.8-82.9,1644.8-83,1644.8-83z
			 M1645.9-85.4C1645.9-85.4,1645.9-85.5,1645.9-85.4C1646-85.5,1646-85.5,1645.9-85.4C1646-85.4,1646-85.4,1645.9-85.4z"/>
            <path fill="#363532"
                  d="M1642.9-80.1L1642.9-80.1c0.2-0.2,0.3-0.4,0.4-0.6C1643.2-80.4,1643-80.3,1642.9-80.1z"/>
	</g>
</g>
    <g id="title">
	<text id="texttitle" transform="matrix(1 0 0 1 512.931 -322.0194)" fill="#F5F7FA" font-family="'Roboto-Thin'"
          font-size="36px">At work, I do:</text>
</g>
    <path id="wire3" fill="none" stroke="#DBDBDB" stroke-miterlimit="10" enable-background="new    " d="M1169.1-370.2l-3.8,2.2
	c-21.2,19.3-38.9,40.8-57.3,62.4c-20.9,24.4-50.5,40.6-81.1,49.3c-34.8,9.9-71.5,11-107.6,9.3c-19.7-1-40.4-2.6-58.4,5.5
	C774.3-203,786-15,893.3-15c91.1,0,204.7,0,295.9,0c0-22.6,0-60.9,0-90.1c31.9,0,29.2,0.1,64.3,0.1c46.1,0,100.7,0,146.7,0
	c0,18.9,0.7,70.3,0.7,87.3c0,38.2,0,117.9,0,156.1c-36.7,0-11.8,0.4-65.7,0.4c-21.5,0-42.4,2.6-64,2.1c-29.3-0.7-57.9-3.9-87.1-4.3
	c-3.7-0.1-7.6-0.1-11-1.7c-3.4-1.6-5.9-4.4-8.4-7.2c-10.2-11.1-21.7-21.1-34.1-29.7c-8.4,7.1-14.5,16.8-17.3,27.4
	c-8.8-18-16-36.8-21.4-56.1c-7.2,7.6-14.5,15.2-21.7,22.9c-2.4,2.5-5,5.2-8.4,6c-5.9,1.4-11.4-3-15.8-7.2
	c-17.7-16.7-25.5-33.3-43.2-50c-6.6,6.6-13.9,12.9-22,24.7c-8.5-17.1-13.8-35.9-14.3-54.9C953.2,47.4,943,85,935.9,123.2
	c-21.4-0.3-42.8-5-63.9-4.9c-27.6,0.1-55.9,3.6-79.8,18.2c-71.5,43.4-34.2,173.1-108,208.6c-32.3,15.5-93.5,2.7-97.8,54.9"/>

    <g id="tblock1" transform="matrix(1, 0, 0, 1, -447.472626, 206.600113)">
  <path fill="#3498DB" d="M 909.4 -254.419 L 1166.5 -254.419 L 1166.5 -214.6 L 909.4 -214.6 L 909.4 -254.419 Z"
        style=""/>
        <path fill="#3498DB" d="M1043.4-176.5l-13-48l24,0L1043.4-176.5z"/>
        <g>
    <g>
      <text transform="matrix(1 0 0 1 967.8848 -192.0213)" fill="#ECF0F1" font-family="'ArialHebrew-Light'"
            font-size="21px" style="white-space: pre;"> </text>
    </g>
            <g transform="matrix(1, 0, 0, 1, 3.622563, 28.980583)">
      <text transform="matrix(1 0 0 1 940.6499 -257.2889)" fill="#ECF0F1" font-family="'Roboto-Light'" font-size="18px"
            style="white-space: pre;">Full stack development </text>
    </g>
            <g>
      <text transform="matrix(1 0 0 1 1017.2588 -215.7781)" fill="#ECF0F1" font-family="'ArialHebrew-Light'"
            font-size="21px" style="white-space: pre;"> </text>
    </g>
  </g>
</g>

    <g id="tblock2" transform="matrix(1, 0, 0, 0.97508, -447.472626, 208.908752)" style="">
         <path fill="#3498DB" d="M 1231.3 -182.388 L 1488.4 -182.388 L 1488.4 -140.6 L 1231.3 -140.6 L 1231.3 -182.388 Z" style=""/>
        <path fill="#3498DB" d="M1360.8-108l-13-48h24L1360.8-108z"/>
        <text fill="#ECF0F1" font-family="'Roboto-Light'" font-size="18px" style="white-space: pre; font-size: 18px;" x="1270.135" y="-156.714">Responsive Web Design</text>
</g>
    <g id="tblock3">
	<path fill="#3498DB" d="M1196.9,199.3h314.3v124.8h-314.3V199.3z"/>
        <path fill="#3498DB" d="M1152,261.6l48-13v24L1152,261.6z"/>
        <g>
		<g>
			<text transform="matrix(1 0 0 1 1213.1407 228.6191)" fill="#ECF0F1" font-family="'Roboto-Light'"
                  font-size="18px">Client relationship</text>
            <text transform="matrix(1 0 0 1 1275.5231 224.0146)" fill="#ECF0F1" font-family="'ArialHebrew-Light'"
                  font-size="21px"> </text>
            <text transform="matrix(1 0 0 1 1417.5797 224.0146)" fill="#ECF0F1" font-family="'Roboto-Light'"
                  font-size="18px"> </text>
		</g>
            <g>
			<text transform="matrix(1 0 0 1 1285.4781 247.7704)" fill="#ECF0F1" font-family="'ArialHebrew-Light'"
                  font-size="21px"> </text>
                <text transform="matrix(1 0 0 1 1304.0172 247.7704)" fill="#ECF0F1" font-family="'ArialHebrew-Light'"
                      font-size="21px"> </text>
                <text transform="matrix(1 0 0 1 1367.1598 247.7704)" fill="#ECF0F1" font-family="'ArialHebrew-Light'"
                      font-size="21px"> </text>
		</g>
            <g>
			<text transform="matrix(1 0 0 1 1255.1539 271.5263)" fill="#ECF0F1" font-family="'ArialHebrew-Light'"
                  font-size="21px"> </text>
		</g>
            <g>
			<text transform="matrix(1 0 0 1 1213.1407 253.3192)" fill="#ECF0F1" font-family="'Roboto-Light'"
                  font-size="18px">API Design</text>
                <text transform="matrix(1 0 0 1 1213.1407 304.8857)" fill="#ECF0F1" font-family="'Roboto-Light'"
                      font-size="18px">Database Management</text>
		    </g>
            <text transform="matrix(1 0 0 1 1213.1407 278.8857)" fill="#ECF0F1" font-family="'Roboto-Light'"
                  font-size="18px">Build server-side extensions</text>
	</g>
</g>

    <g id="fullstack" transform="matrix(0.034493, 0, 0, -0.034493, 890.16452, -35.506241)" fill="#000000" stroke="none" style="">

  <path d="M5872 3941 c-40 -10 -112 -38 -160 -61 -121 -60 -249 -187 -311 -310
-24 -47 -48 -83 -54 -82 -158 46 -359 -6 -461 -119 -51 -56 -101 -151 -120
-225 -12 -48 -14 -50 -91 -87 -201 -98 -319 -315 -285 -529 6 -40 20 -92 30
-116 11 -25 20 -46 20 -48 0 -2 -99 -4 -220 -4 l-220 0 0 -245 0 -245 95 0 95
0 0 -100 0 -99 -92 -3 -93 -3 0 -245 0 -245 253 -3 252 -2 0 -354 0 -354 -32
-11 c-49 -17 -92 -55 -119 -105 l-24 -46 -447 0 -448 0 0 1480 0 1480 -1520 0
-1520 0 0 -1520 0 -1520 1969 0 1969 0 5 -27 c9 -46 62 -109 112 -133 37 -18
58 -21 110 -18 84 5 139 42 175 116 l25 52 502 0 503 0 15 -37 c48 -114 188
-168 294 -113 46 23 98 82 106 122 l7 28 518 0 518 0 7 -28 c3 -16 20 -45 36
-65 103 -125 301 -94 363 55 46 108 -21 250 -131 283 l-23 6 0 355 0 354 260
0 260 0 0 250 0 250 -90 0 -90 0 0 100 0 100 90 0 90 0 0 245 0 245 -255 0
c-140 0 -255 3 -255 8 0 4 7 18 16 30 30 43 74 182 83 262 29 259 -85 517
-293 664 -76 54 -123 78 -212 108 -60 20 -88 23 -215 23 l-146 -1 -19 54 c-26
78 -104 191 -178 259 -137 125 -278 183 -466 189 -89 3 -132 0 -188 -15z m321
-87 c211 -51 398 -235 448 -439 6 -27 15 -53 18 -57 4 -4 42 -1 85 7 223 43
413 -13 567 -165 127 -126 189 -270 189 -440 0 -132 -42 -274 -106 -357 l-25
-33 -240 0 -239 0 0 -245 0 -245 100 0 100 0 0 -100 0 -100 -100 0 -100 0 0
-245 0 -245 260 0 260 0 0 -364 0 -364 -34 -12 c-45 -15 -111 -79 -127 -124
l-13 -36 -513 0 -513 0 -21 45 c-23 48 -63 88 -116 113 l-33 16 0 358 0 358
365 0 365 0 0 245 0 245 -100 0 -100 0 0 105 0 105 100 0 100 0 0 245 0 245
-100 0 -100 0 0 100 0 100 100 0 100 0 0 245 0 245 -780 0 -780 0 0 -245 0
-245 100 0 100 0 0 -100 0 -100 -100 0 -100 0 0 -245 0 -245 100 0 100 0 0
-105 0 -105 -100 0 -100 0 0 -245 0 -245 365 0 365 0 0 -358 0 -359 -40 -18
c-47 -21 -96 -73 -116 -122 l-14 -33 -500 0 -500 0 -21 45 c-23 48 -63 88
-116 113 l-33 16 0 353 0 353 245 0 245 0 0 250 0 250 -85 0 -85 0 0 100 0
100 85 0 85 0 0 245 0 245 -269 0 -270 0 -33 67 c-31 64 -33 73 -33 178 0 100
2 115 28 167 42 85 107 151 189 193 39 19 80 35 92 35 34 0 43 12 49 65 18
155 121 292 249 330 52 15 173 20 216 9 23 -7 23 -9 17 -80 l-7 -74 44 0 44 0
11 88 c10 68 22 106 57 177 137 275 425 411 719 339z m-5290 -751 l0 -48 -184
0 -184 0 -3 47 -3 48 183 2 c101 2 185 2 187 1 2 -2 4 -24 4 -50z m1727 16 l0
-29 -102 0 -103 0 2 32 c1 18 2 33 2 33 1 0 46 -1 101 -3 l100 -3 0 -30z m340
0 l0 -29 -105 0 -105 0 0 30 0 29 98 3 c53 2 100 2 105 0 4 -2 7 -16 7 -33z
m330 1 l0 -30 -100 0 -100 0 0 30 0 30 100 0 100 0 0 -30z m3370 -305 l0 -155
-685 0 -685 0 0 155 0 155 685 0 685 0 0 -155z m-3370 -230 l0 -375 -1132 2
-1133 3 -3 83 -3 82 -199 0 -199 0 -3 -82 -3 -83 -45 0 -45 0 -3 373 -2 372
1385 0 1385 0 0 -375z m3170 -115 l0 -100 -485 0 -485 0 0 100 0 100 485 0
485 0 0 -100z m-5510 -287 l0 -138 -132 2 -133 2 -3 122 c-1 68 0 129 2 136 4
10 38 13 136 13 l130 0 0 -137z m4038 -60 l3 -153 -461 0 -460 0 0 148 c0 82
3 152 7 155 3 4 209 6 457 5 l451 -3 3 -152z m1680 0 l3 -153 -691 0 -690 0 0
148 c0 82 3 152 7 155 3 4 313 6 687 5 l681 -3 3 -152z m1242 -8 l0 -155 -472
2 -473 3 -3 153 -3 152 476 0 475 0 0 -155z m-7290 -60 l0 -75 200 0 200 0 0
75 0 75 1135 0 1135 0 0 -890 0 -890 -1385 0 -1385 0 0 890 0 890 50 0 50 0 0
-75z m5838 -282 l3 -103 -486 0 -485 0 0 98 c0 54 3 102 7 105 3 4 221 6 482
5 l476 -3 3 -102z m-1648 -3 l0 -100 -270 0 -270 0 0 100 0 100 270 0 270 0 0
-100z m2900 0 l0 -100 -270 0 -270 0 0 100 0 100 270 0 270 0 0 -100z m-1040
-345 l0 -155 -690 0 -690 0 0 155 0 155 690 0 690 0 0 -155z m-1680 -5 l0
-150 -460 0 -460 0 0 150 0 150 460 0 460 0 0 -150z m2920 0 l0 -150 -475 0
-475 0 0 150 0 150 475 0 475 0 0 -150z m-3293 -1075 c59 -39 66 -134 14 -186
-97 -97 -257 19 -194 141 33 65 117 86 180 45z m1407 11 c49 -20 76 -61 76
-112 0 -36 -6 -51 -34 -82 -31 -34 -39 -37 -86 -37 -47 0 -55 3 -86 37 -57 63
-45 143 30 189 37 23 56 24 100 5z m1502 -17 c101 -95 -2 -259 -129 -205 -70
29 -96 110 -57 174 39 63 135 79 186 31z"/>
        <path d="M4930 720 l0 -120 64 0 c46 0 69 5 84 18 31 26 35 56 13 83 -17 21
-17 25 -4 46 20 30 10 67 -22 81 -14 7 -50 12 -80 12 l-55 0 0 -120z m115 50
c0 -22 -5 -25 -37 -28 -36 -3 -38 -2 -38 28 0 30 2 31 38 28 32 -3 37 -6 37
-28z m10 -100 c0 -17 -7 -27 -26 -34 -39 -13 -59 -2 -59 34 0 30 1 31 43 28
37 -3 42 -6 42 -28z"/>
        <path d="M5187 773 c-14 -37 -34 -92 -46 -120 l-21 -53 24 0 c18 0 27 8 35 30
9 28 13 30 60 30 46 0 50 -2 60 -30 7 -20 17 -30 30 -30 12 0 21 4 21 8 0 4
-20 57 -44 117 -38 95 -47 110 -69 113 -22 3 -27 -4 -50 -65z m83 -70 c0 -8
-13 -13 -34 -13 l-34 0 16 51 17 52 17 -39 c10 -22 18 -45 18 -51z"/>
        <path d="M5394 806 c-29 -29 -34 -41 -34 -80 0 -55 15 -90 47 -112 34 -21 109
-21 134 2 28 25 9 40 -32 25 -83 -29 -145 84 -79 144 16 14 30 17 70 12 31 -4
52 -2 56 5 12 19 -28 38 -79 38 -42 0 -54 -5 -83 -34z"/>
        <path d="M5600 720 c0 -113 1 -120 20 -120 17 0 20 7 20 50 0 66 18 66 67 1
29 -38 45 -50 66 -50 l28 -1 -39 53 c-21 28 -42 58 -46 65 -5 8 5 29 26 55 51
63 53 67 25 67 -18 0 -36 -14 -63 -50 -21 -27 -44 -50 -51 -50 -9 0 -13 16
-13 50 0 43 -3 50 -20 50 -19 0 -20 -7 -20 -120z"/>
        <path d="M6210 720 l0 -120 81 0 c71 0 80 2 77 18 -2 13 -15 18 -56 20 -50 3
-52 4 -52 33 0 27 2 29 40 29 33 0 40 3 40 20 0 17 -7 20 -40 20 -38 0 -40 2
-40 29 0 29 2 30 52 33 41 2 54 7 56 21 3 15 -6 17 -77 17 l-81 0 0 -120z"/>
        <path d="M6400 720 c0 -113 1 -120 20 -120 17 0 19 8 22 81 l3 82 64 -82 c39
-49 71 -81 82 -81 17 0 19 10 19 120 0 113 -1 120 -20 120 -17 0 -19 -8 -22
-82 l-3 -81 -63 81 c-41 53 -70 82 -83 82 -18 0 -19 -8 -19 -120z"/>
        <path d="M6660 719 l0 -121 75 4 c65 3 78 7 101 30 34 33 43 101 20 146 -22
43 -63 62 -136 62 l-60 0 0 -121z m140 61 c14 -14 20 -33 20 -63 0 -54 -24
-79 -77 -81 l-38 -1 -3 83 -3 82 41 0 c27 0 47 -7 60 -20z"/>
        <path d="M5450 2820 l0 -50 210 0 210 0 0 50 0 50 -210 0 -210 0 0 -50z"/>
        <path d="M6080 2820 l0 -50 40 0 40 0 0 50 0 50 -40 0 -40 0 0 -50z"/>
        <path d="M6274 2857 c-3 -9 -4 -30 -2 -49 3 -32 4 -33 47 -33 l44 0 0 45 0 45
-42 3 c-29 2 -43 -1 -47 -11z"/>
        <path d="M6480 2820 l0 -51 43 3 42 3 0 45 0 45 -42 3 -43 3 0 -51z"/>
        <path d="M4310 2114 l0 -45 43 3 c42 3 42 3 45 46 l3 42 -45 0 -46 0 0 -46z"/>
        <path d="M4510 2115 l0 -45 45 0 45 0 0 45 0 45 -45 0 -45 0 0 -45z"/>
        <path d="M4710 2115 l0 -45 45 0 45 0 0 45 0 45 -45 0 -45 0 0 -45z"/>
        <path d="M5450 2125 l0 -45 210 0 210 0 0 45 0 45 -210 0 -210 0 0 -45z"/>
        <path d="M6080 2125 l0 -45 40 0 40 0 0 45 0 45 -40 0 -40 0 0 -45z"/>
        <path d="M6270 2125 l0 -45 45 0 45 0 0 45 0 45 -45 0 -45 0 0 -45z"/>
        <path d="M6480 2125 l0 -45 45 0 45 0 0 45 0 45 -45 0 -45 0 0 -45z"/>
        <path d="M7200 2115 l0 -45 45 0 45 0 0 45 0 45 -45 0 -45 0 0 -45z"/>
        <path d="M7400 2115 l0 -45 45 0 45 0 0 45 0 45 -45 0 -45 0 0 -45z"/>
        <path d="M7600 2115 l0 -45 45 0 45 0 0 45 0 45 -45 0 -45 0 0 -45z"/>
        <path d="M1170 2025 l0 -35 183 2 182 3 3 33 3 32 -185 0 -186 0 0 -35z"/>
        <path d="M1610 2025 l0 -35 183 2 182 3 3 33 3 32 -185 0 -186 0 0 -35z"/>
        <path d="M2042 2028 l3 -33 185 0 185 0 3 33 3 32 -191 0 -191 0 3 -32z"/>
        <path d="M2800 1855 l0 -85 200 0 200 0 0 85 0 85 -200 0 -200 0 0 -85z"/>
        <path d="M1170 1755 l0 -86 83 3 82 3 3 83 3 82 -86 0 -85 0 0 -85z"/>
        <path d="M1440 1790 l0 -30 590 0 590 0 0 30 0 30 -590 0 -590 0 0 -30z"/>
        <path d="M630 1755 l0 -35 200 0 200 0 0 35 0 35 -200 0 -200 0 0 -35z"/>
        <path d="M2800 1385 l0 -325 200 0 200 0 0 325 0 325 -200 0 -200 0 0 -325z"/>
        <path d="M1440 1655 l0 -35 590 0 590 0 0 35 0 35 -590 0 -590 0 0 -35z"/>
        <path d="M630 1625 l0 -35 165 0 165 0 0 35 0 35 -165 0 -165 0 0 -35z"/>
        <path d="M630 1485 l0 -35 185 0 185 0 0 35 0 35 -185 0 -185 0 0 -35z"/>
        <path d="M1170 1415 l0 -86 83 3 82 3 3 83 3 82 -86 0 -85 0 0 -85z"/>
        <path d="M1440 1455 l0 -35 591 0 590 0 -3 33 -3 32 -587 3 -588 2 0 -35z"/>
        <path d="M1440 1315 l0 -35 590 0 590 0 0 35 0 35 -590 0 -590 0 0 -35z"/>
        <path d="M630 1245 l0 -35 200 0 200 0 0 35 0 35 -200 0 -200 0 0 -35z"/>
        <path d="M1440 1010 l0 -200 590 0 590 0 0 200 0 200 -590 0 -590 0 0 -200z"/>
        <path d="M630 1115 l0 -35 185 0 185 0 0 35 0 35 -185 0 -185 0 0 -35z"/>
        <path d="M2800 905 l0 -85 200 0 200 0 0 85 0 85 -200 0 -200 0 0 -85z"/>
        <path d="M1170 605 l0 -85 85 0 86 0 -3 83 -3 82 -82 3 -83 3 0 -86z"/>
        <path d="M1440 635 l0 -35 588 2 587 3 3 33 3 32 -590 0 -591 0 0 -35z"/>
        <path d="M1440 505 l0 -35 590 0 590 0 0 35 0 35 -590 0 -590 0 0 -35z"/>
        <path d="M5450 1425 l0 -45 210 0 210 0 0 45 0 45 -210 0 -210 0 0 -45z"/>
        <path d="M6080 1425 l0 -45 40 0 40 0 0 45 0 45 -40 0 -40 0 0 -45z"/>
        <path d="M6270 1425 l0 -45 45 0 45 0 0 45 0 45 -45 0 -45 0 0 -45z"/>
        <path d="M6480 1425 l0 -45 45 0 45 0 0 45 0 45 -45 0 -45 0 0 -45z"/>
        <path d="M4310 1426 l0 -46 46 0 45 0 -3 43 c-3 42 -3 42 -45 45 l-43 3 0 -45z"/>
        <path d="M4510 1425 l0 -45 45 0 45 0 0 45 0 45 -45 0 -45 0 0 -45z"/>
        <path d="M4710 1425 l0 -45 45 0 45 0 0 45 0 45 -45 0 -45 0 0 -45z"/>
        <path d="M7200 1425 l0 -45 45 0 45 0 0 45 0 45 -45 0 -45 0 0 -45z"/>
        <path d="M7400 1425 l0 -45 45 0 45 0 0 45 0 45 -45 0 -45 0 0 -45z"/>
        <path d="M7600 1425 l0 -45 45 0 45 0 0 45 0 45 -45 0 -45 0 0 -45z"/>
        <path d="M1007 3663 c-4 -3 -7 -57 -7 -120 l0 -113 25 0 c23 0 25 4 25 44 l0
45 42 3 c31 2 44 8 46 21 3 14 -4 17 -42 17 -46 0 -46 0 -46 35 l0 35 50 0
c43 0 50 3 50 20 0 18 -7 20 -68 20 -38 0 -72 -3 -75 -7z"/>
        <path d="M1190 3550 c0 -113 1 -120 20 -120 17 0 20 7 20 39 0 68 28 62 80
-18 10 -15 23 -22 38 -19 22 3 22 3 -7 47 l-30 45 25 29 c27 32 28 36 15 70
-11 29 -56 47 -117 47 l-44 0 0 -120z m108 68 c20 -20 14 -48 -12 -60 -37 -16
-56 -4 -56 37 0 32 3 35 28 35 15 0 33 -5 40 -12z"/>
        <path d="M1439 3647 c-46 -31 -65 -88 -47 -142 18 -54 58 -80 119 -79 42 0 55
5 80 31 106 105 -28 273 -152 190z m118 -39 c34 -32 32 -99 -3 -127 -54 -42
-111 -15 -121 56 -5 35 -2 45 20 67 32 32 73 34 104 4z"/>
        <path d="M1667 3663 c-4 -3 -7 -57 -7 -120 0 -106 1 -113 20 -113 18 0 20 7
20 75 0 41 3 75 8 75 4 -1 33 -34 65 -75 37 -47 66 -75 78 -75 18 0 19 8 19
120 0 113 -1 120 -20 120 -17 0 -19 -8 -22 -82 l-3 -83 -65 83 c-62 78 -78 91
-93 75z"/>
        <path d="M1900 3650 c0 -16 6 -20 35 -20 l35 0 0 -100 c0 -93 1 -100 20 -100
18 0 20 8 22 98 l3 97 38 3 c30 3 37 7 35 20 -3 14 -18 17 -96 20 -87 3 -92 2
-92 -18z"/>
        <path d="M2180 3550 l0 -120 75 0 c59 0 75 3 75 14 0 11 -15 16 -52 18 -51 3
-52 4 -52 33 0 28 3 30 42 33 28 2 42 8 42 17 0 9 -14 15 -42 17 -39 3 -42 5
-42 33 0 29 1 30 52 33 44 3 52 6 52 23 0 17 -7 19 -75 19 l-75 0 0 -120z"/>
        <path d="M2370 3550 c0 -112 1 -120 20 -120 17 0 19 8 22 78 l3 77 60 -77 c86
-112 95 -108 95 43 0 109 -2 120 -17 117 -15 -3 -19 -17 -23 -80 l-5 -77 -62
80 c-35 43 -70 79 -78 79 -13 0 -15 -20 -15 -120z"/>
        <path d="M2620 3551 l0 -121 74 0 c59 0 78 4 99 21 36 28 51 86 35 134 -19 57
-56 79 -138 83 l-70 4 0 -121z m145 54 c54 -53 16 -145 -60 -145 l-35 0 0 85
0 85 35 0 c25 0 44 -8 60 -25z"/>
</g>

</svg>
